RobotoSerifTextWide-HairlineWidth730.ufo
<glyph name="quotesingle" format="2">
  <advance width="282.1"/>
  <unicode hex="0027"/>
  <outline>
    <contour>
      <point x="165.8932" y="710.0" type="line"/>
      <point x="165.8932" y="626.46"/>
      <point x="158.0036" y="582.874"/>
      <point x="158.0036" y="456.87399999999997" type="curve"/>
      <point x="124.0964" y="456.87399999999997" type="line"/>
      <point x="124.0964" y="582.874"/>
      <point x="116.20679999999999" y="625.46"/>
      <point x="116.20679999999999" y="710.0" type="curve"/>
    </contour>
  </outline>
</glyph>
<glyph name="asterisk" format="2">
  <advance width="451.4008"/>
  <unicode hex="002A"/>
  <outline>
    <contour>
      <point x="61.415200000000006" y="431.804" type="line"/>
      <point x="113.3612" y="457.988"/>
      <point x="137.078" y="480.218"/>
      <point x="231.04080000000002" y="526.402" type="curve"/>
      <point x="220.36" y="545.0" type="line"/>
      <point x="126.48" y="497.954"/>
      <point x="93.1284" y="491.322"/>
      <point x="41.099599999999995" y="465.092" type="curve"/>
    </contour>
    <contour>
      <point x="220.36" y="526.402" type="curve"/>
      <point x="231.04080000000002" y="545.0" type="line"/>
      <point x="137.078" y="591.184"/>
      <point x="113.3612" y="613.506"/>
      <point x="61.415200000000006" y="639.598" type="curve"/>
      <point x="41.099599999999995" y="606.31" type="line"/>
      <point x="92.9628" y="580.126"/>
      <point x="126.48" y="573.494"/>
    </contour>
    <contour>
      <point x="205.67919999999998" y="361.448" type="curve"/>
      <point x="246.1816" y="361.448" type="line"/>
      <point x="246.1816" y="413.678"/>
      <point x="236.464" y="442.724"/>
      <point x="236.464" y="535.7239999999999" type="curve"/>
      <point x="215.3968" y="535.7239999999999" type="line"/>
      <point x="215.3968" y="442.724"/>
      <point x="205.67919999999998" y="413.678"/>
    </contour>
    <contour>
      <point x="215.3968" y="535.7239999999999" type="curve"/>
      <point x="236.464" y="535.7239999999999" type="line"/>
      <point x="236.464" y="628.816"/>
      <point x="246.1816" y="657.77"/>
      <point x="246.1816" y="710.0" type="curve"/>
      <point x="205.67919999999998" y="710.0" type="line"/>
      <point x="205.67919999999998" y="657.77"/>
      <point x="215.3968" y="628.816"/>
    </contour>
    <contour>
      <point x="390.4456" y="431.804" type="curve"/>
      <point x="410.3012" y="465.092" type="line"/>
      <point x="358.1896" y="491.322"/>
      <point x="324.838" y="497.954"/>
      <point x="230.8752" y="545.0" type="curve"/>
      <point x="220.1116" y="526.402" type="line"/>
      <point x="314.4516" y="480.218"/>
      <point x="338.4996" y="457.988"/>
    </contour>
    <contour>
      <point x="230.8752" y="526.402" type="line"/>
      <point x="324.838" y="573.494"/>
      <point x="358.2724" y="580.126"/>
      <point x="410.3012" y="606.31" type="curve"/>
      <point x="390.4456" y="639.598" type="line"/>
      <point x="338.4996" y="613.506"/>
      <point x="314.4516" y="591.184"/>
      <point x="220.1116" y="545.0" type="curve"/>
    </contour>
  </outline>
</glyph>
<glyph name="plus" format="2">
  <advance width="650.1600000000001"/>
  <unicode hex="002B"/>
  <outline>
    <contour>
      <point x="306.5556" y="533.92" type="line"/>
      <point x="306.5556" y="148.08" type="line"/>
      <point x="341.6044" y="148.08" type="line"/>
      <point x="341.6044" y="533.92" type="line"/>
    </contour>
    <contour>
      <point x="539.7444" y="356.82800000000003" type="line"/>
      <point x="110.41560000000001" y="356.82800000000003" type="line"/>
      <point x="110.41560000000001" y="325.17199999999997" type="line"/>
      <point x="539.7444" y="325.17199999999997" type="line"/>
    </contour>
  </outline>
</glyph>
<glyph name="hyphen" format="2">
  <advance width="491.8012"/>
  <unicode hex="002D"/>
  <outline>
    <contour>
      <point x="93.1284" y="334.908" type="line"/>
      <point x="93.1284" y="286.62" type="line"/>
      <point x="398.6728" y="286.62" type="line"/>
      <point x="398.6728" y="334.908" type="line"/>
    </contour>
  </outline>
</glyph>
<glyph name="one" format="2">
  <advance width="650.1600000000001"/>
  <unicode hex="0031"/>
  <outline>
    <contour>
      <point x="384.9984" y="63.92" type="curve" smooth="yes"/>
      <point x="384.9984" y="609.0" type="line"/>
      <point x="360.0812" y="609.0" type="line"/>
      <point x="320.55099429420795" y="556.8197285291039"/>
      <point x="239.3924" y="535.0"/>
      <point x="139.66879999999998" y="533.0" type="curve"/>
      <point x="139.66879999999998" y="501.62" type="line"/>
      <point x="231.5552" y="499.62"/>
      <point x="328.92802629735684" y="525.74818350148"/>
      <point x="351.198" y="571.85" type="curve"/>
      <point x="357.118" y="584.85"/>
      <point x="360.1944" y="592.39"/>
      <point x="344.43719999999996" y="570.39" type="curve"/>
      <point x="344.43719999999996" y="63.92" type="line" smooth="yes"/>
      <point x="344.43719999999996" y="34.92"/>
      <point x="297.9972" y="27.92"/>
      <point x="222.4172" y="27.92" type="curve" smooth="yes"/>
      <point x="150.2208" y="27.92" type="line"/>
      <point x="150.2208" y="0.0" type="line"/>
      <point x="571.0896" y="0.0" type="line"/>
      <point x="571.0896" y="27.92" type="line"/>
      <point x="518.3155999999999" y="27.92" type="line" smooth="yes"/>
      <point x="435.8156" y="27.92"/>
      <point x="384.9984" y="34.92"/>
    </contour>
  </outline>
</glyph>
<glyph name="three" format="2">
  <advance width="650.1600000000001"/>
  <unicode hex="0033"/>
  <outline>
    <contour>
      <point x="318.2428" y="-58.62" type="curve" smooth="yes"/>
      <point x="450.584" y="-58.62"/>
      <point x="537.9516000000001" y="1.9200000000000002"/>
      <point x="537.9516000000001" y="109.138" type="curve" smooth="yes"/>
      <point x="537.9516000000001" y="205.678"/>
      <point x="462.0928" y="268.356"/>
      <point x="303.93640000000005" y="268.356" type="curve" smooth="yes"/>
      <point x="220.43640000000002" y="268.356" type="line"/>
      <point x="220.43640000000002" y="299.598" type="line"/>
      <point x="290.0964" y="299.598" type="line" smooth="yes"/>
      <point x="409.9266716981632" y="299.598"/>
      <point x="500.06360000000006" y="347.368"/>
      <point x="500.06360000000006" y="442.0" type="curve" smooth="yes"/>
      <point x="500.06360000000006" y="545.034"/>
      <point x="420.59196081048395" y="586.666"/>
      <point x="319.3256" y="586.666" type="curve" smooth="yes"/>
      <point x="218.5371428572056" y="586.666"/>
      <point x="157.1050875188416" y="550.603924715064"/>
      <point x="124.8176" y="518.838" type="curve"/>
      <point x="129.3604" y="543.482"/>
      <point x="148.286" y="567.39"/>
      <point x="148.262" y="569.482" type="curve"/>
      <point x="148.262" y="466.344" type="line"/>
      <point x="96.91319999999999" y="466.344" type="line"/>
      <point x="96.91319999999999" y="546.85" type="line"/>
      <point x="131.52777930099234" y="575.619850582488"/>
      <point x="200.981161722492" y="618.0"/>
      <point x="321.8684" y="618.0" type="curve" smooth="yes"/>
      <point x="451.52626931317116" y="618.0"/>
      <point x="544.5816" y="553.0"/>
      <point x="544.5816" y="454.0" type="curve" smooth="yes"/>
      <point x="544.5816" y="334.82800000000003"/>
      <point x="417.65358672197044" y="279.092"/>
      <point x="292.894" y="279.092" type="curve"/>
      <point x="314.19680000000005" y="289.092" type="line"/>
      <point x="510.10120000000006" y="289.092"/>
      <point x="582.1384" y="210.046"/>
      <point x="582.1384" y="109.138" type="curve" smooth="yes"/>
      <point x="582.1384" y="-7.954"/>
      <point x="471.2436" y="-90.0"/>
      <point x="318.2428" y="-90.0" type="curve" smooth="yes"/>
      <point x="169.5428" y="-90.0"/>
      <point x="74.2856" y="-19.138"/>
      <point x="30.4712" y="74.77" type="curve"/>
      <point x="55.8788" y="98.598" type="line"/>
      <point x="91.4788" y="21.058"/>
      <point x="174.0552" y="-58.62"/>
    </contour>
  </outline>
</glyph>
<glyph name="five" format="2">
  <advance width="650.1600000000001"/>
  <unicode hex="0035"/>
  <outline>
    <contour>
      <point x="326.5704" y="-90.0" type="curve"/>
      <point x="190.704" y="-90.0"/>
      <point x="104.8268" y="-26.862"/>
      <point x="65.80359999999999" y="54.816" type="curve"/>
      <point x="89.3372" y="79.552" type="line"/>
      <point x="123.8544" y="5.564"/>
      <point x="203.9644" y="-58.62"/>
      <point x="326.5704" y="-58.62" type="curve"/>
      <point x="467.7056" y="-58.62"/>
      <point x="550.6564" y="28.46"/>
      <point x="550.6564" y="150.816" type="curve" smooth="yes"/>
      <point x="550.6564" y="267.08"/>
      <point x="458.4976" y="334.62"/>
      <point x="345.24760000000003" y="334.62" type="curve" smooth="yes"/>
      <point x="252.132" y="334.62"/>
      <point x="192.6036" y="300.17199999999997"/>
      <point x="138.16719999999998" y="240.0" type="curve"/>
      <point x="111.2564" y="240.0" type="line"/>
      <point x="111.2564" y="609.0" type="line"/>
      <point x="544.8604" y="609.0" type="line"/>
      <point x="536.2192" y="570.16" type="line"/>
      <point x="128.698" y="570.16" type="line"/>
      <point x="144.75600000000003" y="589.0" type="line"/>
      <point x="144.75600000000003" y="266.46" type="line"/>
      <point x="141.29600000000002" y="256.46"/>
      <point x="136.03199999999998" y="247.506"/>
      <point x="123.57560000000001" y="259.966" type="curve"/>
      <point x="174.3864" y="321.598"/>
      <point x="243.30120000000002" y="366.0"/>
      <point x="349.4656" y="366.0" type="curve" smooth="yes"/>
      <point x="506.7112" y="366.0"/>
      <point x="595.386" y="264.954"/>
      <point x="595.386" y="150.816" type="curve" smooth="yes"/>
      <point x="595.386" y="15.586"/>
      <point x="491.74240000000003" y="-90.0"/>
    </contour>
  </outline>
</glyph>
<glyph name="seven" format="2">
  <advance width="650.1600000000001"/>
  <unicode hex="0037"/>
  <outline>
    <contour>
      <point x="273.4348" y="570.16" type="line" smooth="yes"/>
      <point x="173.09199999999998" y="570.16"/>
      <point x="132.572" y="563.16"/>
      <point x="128.1948" y="527.16" type="curve" smooth="yes"/>
      <point x="117.81479999999999" y="437.16" type="line"/>
      <point x="90.65559999999999" y="437.16" type="line"/>
      <point x="90.65559999999999" y="609.0" type="line"/>
      <point x="620.3512000000001" y="609.0" type="line"/>
      <point x="620.3512000000001" y="570.206" type="line"/>
      <point x="474.1176" y="402.16"/>
      <point x="336.7672" y="237.632"/>
      <point x="306.8756" y="-77.0" type="curve"/>
      <point x="261.9372" y="-77.0" type="line"/>
      <point x="296.2888" y="244.08"/>
      <point x="451.7908" y="441.024"/>
      <point x="591.8148" y="585.114" type="curve"/>
      <point x="607.4459999999999" y="570.16" type="line"/>
    </contour>
  </outline>
</glyph>
<glyph name="less" format="2">
  <advance width="650.1600000000001"/>
  <unicode hex="003C"/>
  <outline>
    <contour>
      <point x="533.3976" y="529.782" type="line"/>
      <point x="116.6796" y="353.15" type="line"/>
      <point x="116.6796" y="326.69" type="line"/>
      <point x="139.8996" y="325.81600000000003" type="line"/>
      <point x="533.3976" y="491.31" type="line"/>
    </contour>
    <contour>
      <point x="533.3976" y="172.392" type="line"/>
      <point x="135.9428" y="339.794" type="line"/>
      <point x="116.6796" y="338.012" type="line"/>
      <point x="116.6796" y="310.13800000000003" type="line"/>
      <point x="533.3976" y="133.506" type="line"/>
    </contour>
  </outline>
</glyph>
<glyph name="B" format="2">
  <advance width="716"/>
  <unicode hex="0042"/>
  <outline>
    <contour>
      <point x="387.578" y="710.0" type="curve" smooth="yes"/>
      <point x="52.36" y="710.0" type="line"/>
      <point x="52.36" y="679.218" type="line"/>
      <point x="65.2" y="679.218" type="line" smooth="yes"/>
      <point x="122.02000000000001" y="679.218"/>
      <point x="163.54000000000002" y="672.218"/>
      <point x="163.54000000000002" y="643.218" type="curve" smooth="yes"/>
      <point x="163.54000000000002" y="66.782" type="line" smooth="yes"/>
      <point x="163.54000000000002" y="37.782000000000004"/>
      <point x="122.02000000000001" y="30.782"/>
      <point x="65.2" y="30.782" type="curve" smooth="yes"/>
      <point x="52.36" y="30.782" type="line"/>
      <point x="52.36" y="0.0" type="line"/>
      <point x="399.418" y="0.0" type="line" smooth="yes"/>
      <point x="559.2256" y="0.0"/>
      <point x="655.2408" y="73.138"/>
      <point x="655.2408" y="191.368" type="curve" smooth="yes"/>
      <point x="655.2408" y="295.82800000000003"/>
      <point x="569.5164" y="366.012"/>
      <point x="405.3684" y="381.276" type="curve"/>
      <point x="424.5008" y="363.402" type="line"/>
      <point x="424.5008" y="384.69" type="line"/>
      <point x="405.2792" y="366.724" type="line"/>
      <point x="546.3792" y="383.896"/>
      <point x="619.1808" y="448.08"/>
      <point x="619.1808" y="538.586" type="curve" smooth="yes"/>
      <point x="619.1808" y="642.862"/>
      <point x="532.38" y="710.0"/>
    </contour>
    <contour>
      <point x="204.01839999999999" y="31.242" type="line"/>
      <point x="204.01839999999999" y="678.7579999999999" type="line"/>
      <point x="387.6608" y="678.7579999999999" type="line" smooth="yes"/>
      <point x="510.0948" y="678.7579999999999"/>
      <point x="574.994" y="627.08"/>
      <point x="574.994" y="537.586" type="curve" smooth="yes"/>
      <point x="574.994" y="449.13800000000003"/>
      <point x="504.6412" y="387.598"/>
      <point x="362.12239999999997" y="387.598" type="curve" smooth="yes"/>
      <point x="193.7976" y="387.598" type="line"/>
      <point x="193.7976" y="356.402" type="line"/>
      <point x="371.50239999999997" y="356.402" type="line" smooth="yes"/>
      <point x="527.8612" y="356.402"/>
      <point x="608.594" y="288.77"/>
      <point x="608.594" y="192.368" type="curve" smooth="yes"/>
      <point x="608.594" y="88.92"/>
      <point x="535.8576" y="31.242"/>
      <point x="399.66639999999995" y="31.242" type="curve" smooth="yes"/>
    </contour>
  </outline>
</glyph>
<glyph name="F" format="2">
  <advance width="673"/>
  <unicode hex="0046"/>
  <outline>
    <contour>
      <point x="204.1012" y="678.666" type="line"/>
      <point x="413.42359999999996" y="678.666" type="line" smooth="yes"/>
      <point x="513.1408" y="678.666"/>
      <point x="553.6608" y="671.666"/>
      <point x="558.6636000000001" y="635.666" type="curve" smooth="yes"/>
      <point x="569.0436000000001" y="545.666" type="line"/>
      <point x="595.7888" y="545.666" type="line"/>
      <point x="595.7888" y="710.0" type="line"/>
      <point x="52.36" y="710.0" type="line"/>
      <point x="52.36" y="679.218" type="line"/>
      <point x="65.2" y="679.218" type="line" smooth="yes"/>
      <point x="122.02000000000001" y="679.218"/>
      <point x="163.54000000000002" y="672.218"/>
      <point x="163.54000000000002" y="643.218" type="curve" smooth="yes"/>
      <point x="163.54000000000002" y="66.782" type="line" smooth="yes"/>
      <point x="163.54000000000002" y="37.782000000000004"/>
      <point x="122.02000000000001" y="30.782"/>
      <point x="65.2" y="30.782" type="curve" smooth="yes"/>
      <point x="52.36" y="30.782" type="line"/>
      <point x="52.36" y="0.0" type="line"/>
      <point x="334.584" y="0.0" type="line"/>
      <point x="334.584" y="30.782" type="line"/>
      <point x="314.824" y="30.782" type="line" smooth="yes"/>
      <point x="264.924" y="30.782"/>
      <point x="204.1012" y="31.782"/>
      <point x="204.1012" y="66.782" type="curve" smooth="yes"/>
    </contour>
    <contour>
      <point x="190" y="372" type="curve"/>
      <point x="190" y="342" type="line"/>
      <point x="295" y="341"/>
      <point x="400" y="340"/>
      <point x="505" y="338" type="curve"/>
      <point x="505" y="376" type="line"/>
      <point x="400" y="374"/>
      <point x="295" y="373"/>
    </contour>
  </outline>
</glyph>
<glyph name="G" format="2">
  <advance width="853"/>
  <unicode hex="0047"/>
  <anchor x="425.5248" y="741.0" name="top"/>
  <anchor x="425.5248" y="0.0" name="bottom"/>
  <outline>
    <contour>
      <point x="734.8604" y="286.218" type="line" smooth="yes"/>
      <point x="734.8604" y="315.218"/>
      <point x="771.9204" y="322.218"/>
      <point x="821.8204000000001" y="322.218" type="curve" smooth="yes"/>
      <point x="826.8232" y="322.218" type="line"/>
      <point x="826.8232" y="353.0" type="line"/>
      <point x="588.8276" y="353.0" type="line"/>
      <point x="588.8276" y="322.218" type="line"/>
      <point x="601.7504" y="322.218" type="line" smooth="yes"/>
      <point x="658.4875999999999" y="322.218"/>
      <point x="700.5504000000001" y="315.218"/>
      <point x="700.5504000000001" y="286.218" type="curve" smooth="yes"/>
      <point x="700.5504000000001" y="112.276" type="line"/>
      <point x="671.9136" y="82.782"/>
      <point x="594.4228" y="21.472"/>
      <point x="444.6988" y="21.472" type="curve" smooth="yes"/>
      <point x="227.3148" y="21.472"/>
      <point x="98.4272" y="147.92"/>
      <point x="98.4272" y="355.0" type="curve" smooth="yes"/>
      <point x="98.4272" y="556.126"/>
      <point x="237.7776" y="688.528"/>
      <point x="427.2332" y="688.528" type="curve" smooth="yes"/>
      <point x="578.1752" y="688.528"/>
      <point x="668.4232" y="610.172"/>
      <point x="703.692" y="505.54" type="curve"/>
      <point x="737.4032" y="505.54" type="line"/>
      <point x="737.4032" y="710.0" type="line"/>
      <point x="711.072" y="710.0" type="line"/>
      <point x="697.1032" y="548.23" type="line"/>
      <point x="712.6276" y="567.31" type="line"/>
      <point x="667.3596" y="657.816"/>
      <point x="557.2688" y="720.0"/>
      <point x="427.2332" y="720.0" type="curve" smooth="yes"/>
      <point x="218.118" y="720.0"/>
      <point x="54.36" y="569.0"/>
      <point x="54.36" y="355.0" type="curve" smooth="yes"/>
      <point x="54.36" y="137.0"/>
      <point x="210.4464" y="-10.0"/>
      <point x="443.156" y="-10.0" type="curve" smooth="yes"/>
      <point x="585.7704" y="-10.0"/>
      <point x="695.9200000000001" y="51.138"/>
      <point x="734.8604" y="102.092" type="curve"/>
    </contour>
  </outline>
</glyph>
<glyph name="H" format="2">
  <advance width="898.5356"/>
  <unicode hex="0048"/>
  <anchor x="448.4136" y="741.0" name="top"/>
  <anchor x="448.4136" y="0.0" name="bottom"/>
  <outline>
    <contour>
      <point x="196.2052" y="381.644" type="line"/>
      <point x="196.2052" y="350.356" type="line"/>
      <point x="727.2432" y="350.356" type="line"/>
      <point x="727.2432" y="381.644" type="line"/>
    </contour>
    <contour>
      <point x="52.36" y="0.0" type="line"/>
      <point x="315.6584" y="0.0" type="line"/>
      <point x="315.6584" y="30.782" type="line"/>
      <point x="305.36120000000005" y="30.782" type="line" smooth="yes"/>
      <point x="260.8384" y="30.782"/>
      <point x="204.01839999999999" y="33.782000000000004"/>
      <point x="204.01839999999999" y="40.782000000000004" type="curve" smooth="yes"/>
      <point x="204.01839999999999" y="669.218" type="line" smooth="yes"/>
      <point x="204.01839999999999" y="676.218"/>
      <point x="260.8384" y="679.218"/>
      <point x="305.36120000000005" y="679.218" type="curve" smooth="yes"/>
      <point x="315.6584" y="679.218" type="line"/>
      <point x="315.6584" y="710.0" type="line"/>
      <point x="52.36" y="710.0" type="line"/>
      <point x="52.36" y="679.218" type="line"/>
      <point x="65.2" y="679.218" type="line" smooth="yes"/>
      <point x="122.02000000000001" y="679.218"/>
      <point x="163.54000000000002" y="672.218"/>
      <point x="163.54000000000002" y="643.218" type="curve" smooth="yes"/>
      <point x="163.54000000000002" y="66.782" type="line" smooth="yes"/>
      <point x="163.54000000000002" y="37.782000000000004"/>
      <point x="122.02000000000001" y="30.782"/>
      <point x="65.2" y="30.782" type="curve" smooth="yes"/>
      <point x="52.36" y="30.782" type="line"/>
    </contour>
    <contour>
      <point x="582.8771999999999" y="0.0" type="line"/>
      <point x="846.1756" y="0.0" type="line"/>
      <point x="846.1756" y="30.782" type="line"/>
      <point x="833.3356" y="30.782" type="line" smooth="yes"/>
      <point x="776.5156" y="30.782"/>
      <point x="734.5356" y="37.782000000000004"/>
      <point x="734.5356" y="66.782" type="curve" smooth="yes"/>
      <point x="734.5356" y="643.218" type="line" smooth="yes"/>
      <point x="734.5356" y="672.218"/>
      <point x="776.5156" y="679.218"/>
      <point x="833.3356" y="679.218" type="curve" smooth="yes"/>
      <point x="846.1756" y="679.218" type="line"/>
      <point x="846.1756" y="710.0" type="line"/>
      <point x="582.8771999999999" y="710.0" type="line"/>
      <point x="582.8771999999999" y="679.218" type="line"/>
      <point x="593.2572" y="679.218" type="line" smooth="yes"/>
      <point x="637.2372" y="679.218"/>
      <point x="693.9744000000001" y="676.218"/>
      <point x="693.9744000000001" y="669.218" type="curve" smooth="yes"/>
      <point x="693.9744000000001" y="40.782000000000004" type="line" smooth="yes"/>
      <point x="693.9744000000001" y="33.782000000000004"/>
      <point x="637.2372" y="30.782"/>
      <point x="593.2572" y="30.782" type="curve" smooth="yes"/>
      <point x="582.8771999999999" y="30.782" type="line"/>
    </contour>
  </outline>
</glyph>
<glyph name="K" format="2">
  <advance width="772.7244000000001"/>
  <unicode hex="004B"/>
  <anchor x="393.5568" y="741.0" name="top"/>
  <anchor x="393.5568" y="0.0" name="bottom"/>
  <outline>
    <contour>
      <point x="52.36" y="0.0" type="line"/>
      <point x="315.6584" y="0.0" type="line"/>
      <point x="315.6584" y="30.782" type="line"/>
      <point x="305.36120000000005" y="30.782" type="line" smooth="yes"/>
      <point x="260.8384" y="30.782"/>
      <point x="204.01839999999999" y="33.782000000000004"/>
      <point x="204.01839999999999" y="40.782000000000004" type="curve" smooth="yes"/>
      <point x="204.01839999999999" y="669.218" type="line" smooth="yes"/>
      <point x="204.01839999999999" y="676.218"/>
      <point x="260.8384" y="679.218"/>
      <point x="305.36120000000005" y="679.218" type="curve" smooth="yes"/>
      <point x="315.6584" y="679.218" type="line"/>
      <point x="315.6584" y="710.0" type="line"/>
      <point x="52.36" y="710.0" type="line"/>
      <point x="52.36" y="679.218" type="line"/>
      <point x="65.2" y="679.218" type="line" smooth="yes"/>
      <point x="122.02000000000001" y="679.218"/>
      <point x="163.54000000000002" y="672.218"/>
      <point x="163.54000000000002" y="643.218" type="curve" smooth="yes"/>
      <point x="163.54000000000002" y="66.782" type="line" smooth="yes"/>
      <point x="163.54000000000002" y="37.782000000000004"/>
      <point x="122.02000000000001" y="30.782"/>
      <point x="65.2" y="30.782" type="curve" smooth="yes"/>
      <point x="52.36" y="30.782" type="line"/>
    </contour>
    <contour>
      <point x="505.16200000000003" y="0.0" type="line"/>
      <point x="755.4244" y="0.0" type="line"/>
      <point x="755.4244" y="30.782" type="line"/>
      <point x="742.5844" y="30.782" type="line" smooth="yes"/>
      <point x="690.2244000000001" y="30.782"/>
      <point x="670.7128" y="34.782000000000004"/>
      <point x="639.3244" y="63.782000000000004" type="curve" smooth="yes"/>
      <point x="285.7492" y="382.87399999999997" type="line"/>
      <point x="290.6232" y="357.908" type="line"/>
      <point x="630.1404" y="650.218" type="line" smooth="yes"/>
      <point x="655.9032" y="673.218"/>
      <point x="680.0404" y="679.218"/>
      <point x="722.0204" y="679.218" type="curve" smooth="yes"/>
      <point x="740.8632" y="679.218" type="line"/>
      <point x="740.8632" y="710.0" type="line"/>
      <point x="500.7976" y="710.0" type="line"/>
      <point x="500.7976" y="679.218" type="line"/>
      <point x="511.1776" y="679.218" type="line" smooth="yes"/>
      <point x="554.1576" y="679.218"/>
      <point x="602.0576" y="676.218"/>
      <point x="604.0576" y="669.218" type="curve"/>
      <point x="254.07760000000002" y="366.86199999999997" type="line"/>
      <point x="254.07760000000002" y="361.31" type="line"/>
      <point x="612.7992" y="40.782000000000004" type="line"/>
      <point x="612.7992" y="33.782000000000004"/>
      <point x="558.522" y="30.782"/>
      <point x="515.542" y="30.782" type="curve" smooth="yes"/>
      <point x="505.16200000000003" y="30.782" type="line"/>
    </contour>
  </outline>
</glyph>
<glyph name="a" format="2">
  <advance width="609"/>
  <unicode hex="0061"/>
  <anchor x="278.48080000000004" y="553.0" name="top"/>
  <anchor x="457.15520000000004" y="-10.0" name="right"/>
  <anchor x="309.998" y="0.0" name="bottom"/>
  <outline>
    <contour>
      <point x="441" y="304" type="line"/>
      <point x="192" y="278"/>
      <point x="67" y="235"/>
      <point x="67" y="123" type="curve" smooth="yes"/>
      <point x="67" y="43"/>
      <point x="136" y="-10.0"/>
      <point x="240" y="-10.0" type="curve" smooth="yes"/>
      <point x="328" y="-10.0"/>
      <point x="398" y="33"/>
      <point x="441" y="98" type="curve"/>
      <point x="441" y="152" type="line"/>
      <point x="412" y="84"/>
      <point x="339" y="21"/>
      <point x="241" y="21" type="curve" smooth="yes"/>
      <point x="153" y="21"/>
      <point x="111" y="63"/>
      <point x="111" y="123" type="curve" smooth="yes"/>
      <point x="111" y="215"/>
      <point x="211" y="250"/>
      <point x="441" y="273" type="curve"/>
    </contour>
    <contour>
      <point x="438" y="0.0" type="line"/>
      <point x="577" y="0.0" type="line"/>
      <point x="577" y="28" type="line"/>
      <point x="576" y="28" type="line"/>
      <point x="520" y="28"/>
      <point x="480" y="35"/>
      <point x="480" y="64" type="curve" smooth="yes"/>
      <point x="480" y="369" type="line" smooth="yes"/>
      <point x="480" y="484"/>
      <point x="389" y="518.0"/>
      <point x="289" y="518.0" type="curve" smooth="yes"/>
      <point x="194" y="518.0"/>
      <point x="132" y="486"/>
      <point x="100" y="461" type="curve"/>
      <point x="100" y="383" type="line"/>
      <point x="150" y="383" type="line"/>
      <point x="150" y="467" type="line"/>
      <point x="124" y="466"/>
      <point x="116" y="438"/>
      <point x="119" y="423" type="curve"/>
      <point x="150" y="459"/>
      <point x="203" y="487"/>
      <point x="289" y="487" type="curve" smooth="yes"/>
      <point x="384" y="487"/>
      <point x="437" y="459"/>
      <point x="437" y="360" type="curve" smooth="yes"/>
      <point x="437" y="110.0" type="line"/>
      <point x="438" y="110" type="line"/>
    </contour>
  </outline>
</glyph>
<glyph name="g" format="2">
  <advance width="638"/>
  <unicode hex="0067"/>
  <anchor x="297.9096" y="545.0" name="top"/>
  <outline>
    <contour>
      <point x="296.8268" y="188.012" type="curve" smooth="yes"/>
      <point x="198.91360000000003" y="188.012"/>
      <point x="127.51480000000001" y="241.552"/>
      <point x="127.51480000000001" y="335.86199999999997" type="curve" smooth="yes"/>
      <point x="127.51480000000001" y="430.17199999999997"/>
      <point x="200.61192112710398" y="486.712"/>
      <point x="296.8268" y="486.712" type="curve" smooth="yes"/>
      <point x="394.04656223706877" y="486.712"/>
      <point x="467.1388" y="430.17199999999997"/>
      <point x="467.1388" y="335.86199999999997" type="curve" smooth="yes"/>
      <point x="467.1388" y="241.552"/>
      <point x="394.74" y="188.012"/>
    </contour>
    <contour>
      <point x="296.8268" y="156.724" type="curve" smooth="yes"/>
      <point x="416.062" y="156.724"/>
      <point x="510.90520000000004" y="226.77"/>
      <point x="510.90520000000004" y="335.86199999999997" type="curve" smooth="yes"/>
      <point x="510.90520000000004" y="443.954"/>
      <point x="415.062" y="518.0"/>
      <point x="296.8268" y="518.0" type="curve" smooth="yes"/>
      <point x="178.5916" y="518.0"/>
      <point x="83.7484" y="443.954"/>
      <point x="83.7484" y="335.86199999999997" type="curve" smooth="yes"/>
      <point x="83.7484" y="226.77"/>
      <point x="177.6744" y="156.724"/>
    </contour>
    <contour>
      <point x="453.778" y="420.586" type="line"/>
      <point x="493.2088" y="474.574"/>
      <point x="531.3212000000001" y="483.114"/>
      <point x="606.5" y="477.068" type="curve"/>
      <point x="606.5" y="523.2760000000001" type="line"/>
      <point x="529.748" y="530.3679999999999"/>
      <point x="472.79279999999994" y="496.322"/>
      <point x="436.3124" y="435.586" type="curve"/>
    </contour>
    <contour>
      <point x="308" y="-236" type="line" smooth="yes"/>
      <point x="461" y="-236"/>
      <point x="594" y="-175"/>
      <point x="594" y="-66" type="curve" smooth="yes"/>
      <point x="594" y="10"/>
      <point x="535" y="42"/>
      <point x="418" y="42" type="curve" smooth="yes"/>
      <point x="204" y="42" type="line" smooth="yes"/>
      <point x="143" y="42"/>
      <point x="111" y="57"/>
      <point x="111" y="94" type="curve" smooth="yes"/>
      <point x="111" y="131"/>
      <point x="153" y="161"/>
      <point x="214" y="183" type="curve"/>
      <point x="200" y="203" type="line"/>
      <point x="117" y="171"/>
      <point x="69" y="133"/>
      <point x="69" y="85" type="curve" smooth="yes"/>
      <point x="69" y="47"/>
      <point x="97" y="22"/>
      <point x="149" y="7" type="curve"/>
      <point x="152" y="2" type="line"/>
      <point x="418" y="2" type="line" smooth="yes"/>
      <point x="519" y="2"/>
      <point x="552" y="-19"/>
      <point x="552" y="-71" type="curve" smooth="yes"/>
      <point x="552" y="-150"/>
      <point x="450" y="-205"/>
      <point x="309" y="-205" type="curve" smooth="yes"/>
      <point x="274" y="-205" type="line" smooth="yes"/>
      <point x="139" y="-205"/>
      <point x="72" y="-169"/>
      <point x="72" y="-107" type="curve" smooth="yes"/>
      <point x="72" y="-59"/>
      <point x="111" y="-25"/>
      <point x="190" y="7" type="curve"/>
      <point x="180" y="26" type="line"/>
      <point x="78" y="-13"/>
      <point x="30" y="-49"/>
      <point x="30" y="-110" type="curve" smooth="yes"/>
      <point x="30" y="-203"/>
      <point x="140" y="-236"/>
      <point x="274" y="-236" type="curve" smooth="yes"/>
    </contour>
  </outline>
</glyph>
<glyph name="p" format="2">
  <advance width="701.9292"/>
  <unicode hex="0070"/>
  <outline>
    <contour>
      <point x="40.6856" y="-223.0" type="line"/>
      <point x="297.56080000000003" y="-223.0" type="line"/>
      <point x="297.56080000000003" y="-195.172" type="line"/>
      <point x="263.9608" y="-195.172" type="line" smooth="yes"/>
      <point x="233.82080000000002" y="-195.172"/>
      <point x="179.5436" y="-192.172"/>
      <point x="179.5436" y="-185.172" type="curve" smooth="yes"/>
      <point x="179.5436" y="370.0" type="line"/>
      <point x="180.53719999999998" y="370.552" type="line"/>
      <point x="180.53719999999998" y="508.0" type="line"/>
      <point x="40.6856" y="508.0" type="line"/>
      <point x="40.6856" y="482.034" type="line"/>
      <point x="52.6084" y="480.034" type="line" smooth="yes"/>
      <point x="110.3456" y="470.034"/>
      <point x="138.5684" y="464.034"/>
      <point x="138.5684" y="435.034" type="curve" smooth="yes"/>
      <point x="138.5684" y="-159.172" type="line" smooth="yes"/>
      <point x="138.5684" y="-188.172"/>
      <point x="99.0484" y="-195.172"/>
      <point x="43.2284" y="-195.172" type="curve"/>
      <point x="40.6856" y="-195.172" type="line"/>
    </contour>
    <contour>
      <point x="399.0932" y="-10.0" type="curve" smooth="yes"/>
      <point x="550.8456" y="-10.0"/>
      <point x="651.2776" y="99.0"/>
      <point x="651.2776" y="257.0" type="curve" smooth="yes"/>
      <point x="651.2776" y="414.0"/>
      <point x="555.9312" y="518.0"/>
      <point x="408.55600000000004" y="518.0" type="curve" smooth="yes"/>
      <point x="302.9252" y="518.0"/>
      <point x="236.1456" y="469.50600000000003"/>
      <point x="176.0312" y="389.552" type="curve"/>
      <point x="176.0312" y="336.988" type="line"/>
      <point x="235.97359999999998" y="427.17199999999997"/>
      <point x="305.882" y="486.758"/>
      <point x="401.636" y="486.758" type="curve" smooth="yes"/>
      <point x="536.3543999999999" y="486.758"/>
      <point x="607.0908000000001" y="398.218"/>
      <point x="607.0908000000001" y="257.0" type="curve" smooth="yes"/>
      <point x="607.0908000000001" y="115.736"/>
      <point x="533.7288" y="21.242"/>
      <point x="395.6332" y="21.242" type="curve" smooth="yes"/>
      <point x="298.3824" y="21.242"/>
      <point x="225.68280000000001" y="82.506"/>
      <point x="176.0312" y="176.41400000000002" type="curve"/>
      <point x="176.0312" y="117.988" type="line"/>
      <point x="231.6028" y="35.402"/>
      <point x="297.548" y="-10.0"/>
    </contour>
  </outline>
</glyph>
<glyph name="q" format="2">
  <advance width="666.0044"/>
  <unicode hex="0071"/>
  <outline>
    <contour>
      <point x="404.3684" y="-223.0" type="line"/>
      <point x="661.2436" y="-223.0" type="line"/>
      <point x="661.2436" y="-195.172" type="line"/>
      <point x="658.7008000000001" y="-195.172" type="line"/>
      <point x="602.8808" y="-195.172"/>
      <point x="563.9036000000001" y="-188.172"/>
      <point x="563.9036000000001" y="-159.172" type="curve" smooth="yes"/>
      <point x="563.9036000000001" y="511.0" type="line"/>
      <point x="538.9036000000001" y="511.0" type="line"/>
      <point x="523.1004" y="391.552" type="line"/>
      <point x="522.9284" y="390.724" type="line"/>
      <point x="522.9284" y="-185.172" type="line" smooth="yes"/>
      <point x="522.9284" y="-192.172"/>
      <point x="468.10839999999996" y="-195.172"/>
      <point x="437.96840000000003" y="-195.172" type="curve" smooth="yes"/>
      <point x="404.3684" y="-195.172" type="line"/>
    </contour>
    <contour>
      <point x="290.9592" y="-10.0" type="curve" smooth="yes"/>
      <point x="395.9644" y="-10.0"/>
      <point x="463.99240000000003" y="38.448"/>
      <point x="525.8979999999999" y="118.402" type="curve"/>
      <point x="525.8979999999999" y="170.966" type="line"/>
      <point x="464.79" y="81.782"/>
      <point x="393.0076" y="21.242"/>
      <point x="297.87919999999997" y="21.242" type="curve" smooth="yes"/>
      <point x="163.078" y="21.242"/>
      <point x="94.83840000000001" y="108.87400000000001"/>
      <point x="94.83840000000001" y="250.0" type="curve" smooth="yes"/>
      <point x="94.83840000000001" y="391.356"/>
      <point x="173.36880000000002" y="486.758"/>
      <point x="313.79560000000004" y="486.758" type="curve" smooth="yes"/>
      <point x="414.672" y="486.758"/>
      <point x="482.4976" y="425.586"/>
      <point x="525.8979999999999" y="332.586" type="curve"/>
      <point x="525.8979999999999" y="394.87399999999997" type="line"/>
      <point x="476.57759999999996" y="474.552"/>
      <point x="413.5064" y="518.0"/>
      <point x="310.3356" y="518.0" type="curve" smooth="yes"/>
      <point x="155.7092" y="518.0"/>
      <point x="50.6516" y="408.046"/>
      <point x="50.6516" y="250.0" type="curve" smooth="yes"/>
      <point x="50.6516" y="93.04599999999999"/>
      <point x="143.584" y="-10.0"/>
    </contour>
  </outline>
</glyph>
<glyph name="t" format="2">
  <advance width="386"/>
  <unicode hex="0074"/>
  <anchor x="156.9272" y="675.0" name="top"/>
  <anchor x="301.00800000000004" y="681.0" name="right"/>
  <anchor x="250.062" y="0.0" name="bottom"/>
  <outline>
    <contour>
      <point x="167.28320000000002" y="135.84" type="curve" smooth="yes"/>
      <point x="167.28320000000002" y="648.0" type="line"/>
      <point x="130.354" y="648.0" type="line"/>
      <point x="130.354" y="500.0" type="line"/>
      <point x="126.308" y="492.0" type="line"/>
      <point x="126.308" y="135.794" type="line" smooth="yes"/>
      <point x="126.308" y="27.138"/>
      <point x="195.2356" y="-10.0"/>
      <point x="273.66560000000004" y="-10.0" type="curve" smooth="yes"/>
      <point x="308.1" y="-10.0"/>
      <point x="335.7432" y="-3.0"/>
      <point x="356.42040000000003" y="5.0" type="curve"/>
      <point x="356.42040000000003" y="36.242000000000004" type="line"/>
      <point x="336.6604" y="31.242"/>
      <point x="314.02" y="24.242"/>
      <point x="282.5028" y="24.242" type="curve" smooth="yes"/>
      <point x="216.22" y="24.242"/>
      <point x="167.28320000000002" y="56.38"/>
    </contour>
    <contour>
      <point x="130.354" y="553.0" type="line"/>
      <point x="130.354" y="512.0"/>
      <point x="89.834" y="503.0"/>
      <point x="23.965200000000003" y="503.0" type="curve" smooth="yes"/>
      <point x="18.0452" y="503.0" type="line"/>
      <point x="18.0452" y="476.758" type="line"/>
      <point x="147.7064" y="476.758" type="line"/>
    </contour>
    <contour>
      <point x="148.5232" y="476.758" type="line"/>
      <point x="342.6632" y="476.758" type="line"/>
      <point x="342.6632" y="508.0" type="line"/>
      <point x="148.5232" y="508.0" type="line"/>
    </contour>
  </outline>
</glyph>
<glyph name="v" format="2">
  <advance width="627"/>
  <unicode hex="0076"/>
  <outline>
    <contour>
      <point x="502.678" y="467.758" type="curve"/>
      <point x="312.55359999999996" y="26.38" type="line"/>
      <point x="324.4764" y="24.564" type="line"/>
      <point x="129.97480000000002" y="468.31" type="line"/>
      <point x="129.97480000000002" y="475.31"/>
      <point x="181.792" y="477.31"/>
      <point x="231.692" y="477.31" type="curve" smooth="yes"/>
      <point x="234.15200000000004" y="477.31" type="line"/>
      <point x="234.15200000000004" y="508.0" type="line"/>
      <point x="12.419599999999999" y="508.0" type="line"/>
      <point x="12.419599999999999" y="477.31" type="line"/>
      <point x="14.419599999999999" y="477.31" type="line" smooth="yes"/>
      <point x="58.8596" y="477.31"/>
      <point x="87.6224" y="470.31"/>
      <point x="99.3796" y="443.31" type="curve" smooth="yes"/>
      <point x="293.1424" y="0.0" type="line"/>
      <point x="335.412" y="0.0" type="line"/>
      <point x="528.5888" y="442.942" type="line" smooth="yes"/>
      <point x="539.6376" y="470.264"/>
      <point x="568.198" y="477.31"/>
      <point x="613.0888" y="477.31" type="curve" smooth="yes"/>
      <point x="615.5488" y="477.31" type="line"/>
      <point x="615.5488" y="508.0" type="line"/>
      <point x="397.3784" y="508.0" type="line"/>
      <point x="397.3784" y="477.31" type="line"/>
      <point x="399.8384" y="477.31" type="line" smooth="yes"/>
      <point x="450.06960000000004" y="477.31"/>
      <point x="502.9264" y="474.988"/>
    </contour>
  </outline>
</glyph>
<glyph name="bar" format="2">
  <advance width="325.08000000000004"/>
  <unicode hex="007C"/>
  <outline>
    <contour>
      <point x="146.0984" y="750.0" type="line"/>
      <point x="146.0984" y="-129.90800000000002" type="line"/>
      <point x="178.98160000000001" y="-129.90800000000002" type="line"/>
      <point x="178.98160000000001" y="750.0" type="line"/>
    </contour>
  </outline>
</glyph>
<glyph name="section" format="2">
  <advance width="706.8796"/>
  <unicode hex="00A7"/>
  <outline>
    <contour>
      <point x="324.08639999999997" y="424.276" type="line"/>
      <point x="193.75639999999999" y="427.276"/>
      <point x="70.0676" y="378.46"/>
      <point x="70.0676" y="282.0" type="curve" smooth="yes"/>
      <point x="70.0676" y="180.724"/>
      <point x="182.3828" y="139.402"/>
      <point x="293.11199999999997" y="98.172" type="curve" smooth="yes"/>
      <point x="419.2912" y="51.402"/>
      <point x="531.8420000000001" y="26.356"/>
      <point x="531.8420000000001" y="-76.0" type="curve" smooth="yes"/>
      <point x="531.8420000000001" y="-160.896"/>
      <point x="450.732" y="-204.712"/>
      <point x="341.13800000000003" y="-204.712" type="curve" smooth="yes"/>
      <point x="234.2588" y="-204.712"/>
      <point x="159.0624" y="-173.988"/>
      <point x="109.66560000000001" y="-129.62" type="curve"/>
      <point x="116.1588" y="-138.16"/>
      <point x="117.38319999999999" y="-160.402"/>
      <point x="153.526" y="-193.942" type="curve"/>
      <point x="153.526" y="-64.712" type="line"/>
      <point x="102.9224" y="-64.712" type="line"/>
      <point x="102.9224" y="-171.724" type="line"/>
      <point x="138.57479999999998" y="-201.046"/>
      <point x="229.5744" y="-236.0"/>
      <point x="340.8896" y="-236.0" type="curve" smooth="yes"/>
      <point x="467.17359999999996" y="-236.0"/>
      <point x="573.4796" y="-175.494"/>
      <point x="573.4796" y="-71.448" type="curve" smooth="yes"/>
      <point x="573.4796" y="37.827999999999996"/>
      <point x="459.1248" y="80.288"/>
      <point x="325.81399999999996" y="128.196" type="curve" smooth="yes"/>
      <point x="214.88240000000002" y="168.334"/>
      <point x="107.8312" y="199.196"/>
      <point x="107.8312" y="284.46" type="curve" smooth="yes"/>
      <point x="107.8312" y="359.908"/>
      <point x="202.5328" y="400.17199999999997"/>
      <point x="340.4692" y="399.77" type="curve"/>
    </contour>
    <contour>
      <point x="436.65" y="62.908" type="line"/>
      <point x="551.726" y="75.276"/>
      <point x="639.0172" y="128.954"/>
      <point x="639.0172" y="214.41400000000002" type="curve" smooth="yes"/>
      <point x="639.0172" y="315.92"/>
      <point x="522.9108" y="360.644"/>
      <point x="386.14" y="409.552" type="curve" smooth="yes"/>
      <point x="281.75120000000004" y="447.644"/>
      <point x="174.286" y="479.46"/>
      <point x="174.286" y="570.77" type="curve" smooth="yes"/>
      <point x="174.286" y="642.942"/>
      <point x="241.81080000000003" y="688.7579999999999"/>
      <point x="354.782" y="688.7579999999999" type="curve" smooth="yes"/>
      <point x="457.15520000000004" y="688.7579999999999"/>
      <point x="507.8528" y="652.896"/>
      <point x="543.9496" y="612.62" type="curve"/>
      <point x="547.6212" y="634.9879999999999"/>
      <point x="531.1032" y="663.9879999999999"/>
      <point x="506.6284" y="668.85" type="curve"/>
      <point x="506.6284" y="566.896" type="line"/>
      <point x="557.2688" y="566.896" type="line"/>
      <point x="557.2688" y="657.0" type="line"/>
      <point x="526.0459999999999" y="685.862"/>
      <point x="454.5884" y="720.0"/>
      <point x="355.0304" y="720.0" type="curve" smooth="yes"/>
      <point x="230.786" y="720.0"/>
      <point x="132.6484" y="663.54"/>
      <point x="132.6484" y="572.31" type="curve" smooth="yes"/>
      <point x="132.6484" y="466.942"/>
      <point x="243.2948" y="420.666"/>
      <point x="364.2688" y="377.62" type="curve" smooth="yes"/>
      <point x="487.95120000000003" y="334.62"/>
      <point x="601.1708" y="293.08"/>
      <point x="601.1708" y="211.77" type="curve" smooth="yes"/>
      <point x="601.1708" y="146.368"/>
      <point x="544.0196" y="103.334"/>
      <point x="422.8928" y="88.92" type="curve"/>
    </contour>
  </outline>
</glyph>
<glyph name="copyright" format="2">
  <advance width="975.1572000000001"/>
  <unicode hex="00A9"/>
  <outline>
    <contour>
      <point x="492.74240000000003" y="532.31" type="curve" smooth="yes"/>
      <point x="566.9912" y="532.31"/>
      <point x="618.3052" y="495.988"/>
      <point x="636.8996" y="434.988" type="curve"/>
      <point x="682.1804" y="434.988" type="line"/>
      <point x="682.1804" y="552.0" type="line"/>
      <point x="655.1104" y="552.0" type="line"/>
      <point x="644.8132" y="446.23" type="line"/>
      <point x="645.5648" y="449.0"/>
      <point x="652.5372" y="451.448"/>
      <point x="660.3744" y="449.356" type="curve"/>
      <point x="641.9087999999999" y="521.862"/>
      <point x="570.2028" y="563.0"/>
      <point x="492.908" y="563.0" type="curve" smooth="yes"/>
      <point x="365.842" y="563.0"/>
      <point x="274.28679999999997" y="476.0"/>
      <point x="274.28679999999997" y="354.0" type="curve" smooth="yes"/>
      <point x="274.28679999999997" y="231.0"/>
      <point x="371.0472" y="147.0"/>
      <point x="505.576" y="147.0" type="curve" smooth="yes"/>
      <point x="602.9684" y="147.0"/>
      <point x="677.5916" y="202.598"/>
      <point x="694.8548000000001" y="272.104" type="curve"/>
      <point x="667.6192" y="284.288" type="line"/>
      <point x="648.0248" y="220.334"/>
      <point x="590.5424" y="177.69"/>
      <point x="510.036" y="177.69" type="curve" smooth="yes"/>
      <point x="391.78319999999997" y="177.69"/>
      <point x="319.2124" y="246.479073170716"/>
      <point x="319.2124" y="354.0" type="curve" smooth="yes"/>
      <point x="319.2124" y="463.744506024072"/>
      <point x="390.2036" y="532.31"/>
    </contour>
    <contour>
      <point x="86.0188" y="355.0" type="curve" smooth="yes"/>
      <point x="86.0188" y="554.356"/>
      <point x="253.8468" y="707.08"/>
      <point x="487.62" y="707.08" type="curve" smooth="yes"/>
      <point x="721.3932" y="707.08"/>
      <point x="889.1384" y="554.356"/>
      <point x="889.1384" y="355.0" type="curve" smooth="yes"/>
      <point x="889.1384" y="155.644"/>
      <point x="721.34849815956" y="2.92"/>
      <point x="487.62" y="2.92" type="curve" smooth="yes"/>
      <point x="253.8468" y="2.92"/>
      <point x="86.0188" y="155.614428571468"/>
    </contour>
    <contour>
      <point x="46.44" y="355.0" type="curve" smooth="yes"/>
      <point x="46.44" y="138.0"/>
      <point x="238.12" y="-28.0"/>
      <point x="487.62" y="-28.0" type="curve" smooth="yes"/>
      <point x="736.9544000000001" y="-28.0"/>
      <point x="928.7172" y="138.0"/>
      <point x="928.7172" y="355.0" type="curve" smooth="yes"/>
      <point x="928.7172" y="572.0"/>
      <point x="736.9544000000001" y="738.0"/>
      <point x="487.62" y="738.0" type="curve" smooth="yes"/>
      <point x="238.12" y="738.0"/>
      <point x="46.44" y="572.0"/>
    </contour>
  </outline>
</glyph>
<glyph name="macron" format="2">
  <advance width="580.96"/>
  <unicode hex="00AF"/>
  <anchor x="290.48" y="571.792" name="_top"/>
  <outline>
    <contour>
      <point x="147.47560000000001" y="689.092" type="line"/>
      <point x="147.47560000000001" y="657.482" type="line"/>
      <point x="433.0244" y="657.482" type="line"/>
      <point x="433.0244" y="689.092" type="line"/>
    </contour>
  </outline>
</glyph>
<glyph name="ordmasculine" format="2">
  <advance width="545.8888"/>
  <unicode hex="00BA"/>
  <outline>
    <contour>
      <point x="272.9444" y="319.54" type="curve" smooth="yes"/>
      <point x="394.3084" y="319.54"/>
      <point x="481.65200000000004" y="399.632"/>
      <point x="481.65200000000004" y="519.77" type="curve" smooth="yes"/>
      <point x="481.65200000000004" y="637.0"/>
      <point x="394.3084" y="720.0"/>
      <point x="272.9444" y="720.0" type="curve" smooth="yes"/>
      <point x="151.5804" y="720.0"/>
      <point x="64.2368" y="637.0"/>
      <point x="64.2368" y="519.77" type="curve" smooth="yes"/>
      <point x="64.2368" y="399.632"/>
      <point x="151.5804" y="319.54"/>
    </contour>
    <contour>
      <point x="272.9444" y="346.82800000000003" type="curve" smooth="yes"/>
      <point x="174.27960000000002" y="346.82800000000003"/>
      <point x="105.3776" y="415.414"/>
      <point x="105.3776" y="519.77" type="curve" smooth="yes"/>
      <point x="105.3776" y="619.172"/>
      <point x="174.27960000000002" y="692.712"/>
      <point x="272.9444" y="692.712" type="curve" smooth="yes"/>
      <point x="371.6092" y="692.712"/>
      <point x="440.51120000000003" y="619.172"/>
      <point x="440.51120000000003" y="519.77" type="curve" smooth="yes"/>
      <point x="440.51120000000003" y="415.414"/>
      <point x="371.6092" y="346.82800000000003"/>
    </contour>
  </outline>
</glyph>
<glyph name="AE" format="2">
  <advance width="1079.5412"/>
  <unicode hex="00C6"/>
  <anchor x="747.6004" y="741.0" name="top"/>
  <outline>
    <contour>
      <point x="-14.1584" y="0.0" type="line"/>
      <point x="213.39839999999998" y="0.0" type="line"/>
      <point x="213.39839999999998" y="30.782" type="line"/>
      <point x="196.1812" y="30.782" type="line" smooth="yes"/>
      <point x="152.2012" y="30.782"/>
      <point x="98.8412" y="37.782000000000004"/>
      <point x="98.8412" y="48.782000000000004" type="curve"/>
      <point x="262.48159999999996" y="266.988" type="line"/>
      <point x="563.0344" y="266.988" type="line"/>
      <point x="563.0344" y="40.782000000000004" type="line" smooth="yes"/>
      <point x="563.0344" y="33.782000000000004"/>
      <point x="506.2144" y="30.782"/>
      <point x="461.6916" y="30.782" type="curve" smooth="yes"/>
      <point x="451.3116" y="30.782" type="line"/>
      <point x="451.3116" y="0.0" type="line"/>
      <point x="1016.4635999999999" y="0.0" type="line"/>
      <point x="1016.4635999999999" y="189.334" type="line"/>
      <point x="988.7184" y="189.334" type="line"/>
      <point x="977.7956" y="74.334" type="line" smooth="yes"/>
      <point x="974.3356000000001" y="38.334"/>
      <point x="932.8156000000001" y="31.334"/>
      <point x="833.0156" y="31.334" type="curve" smooth="yes"/>
      <point x="603.5956" y="31.334" type="line"/>
      <point x="603.5956" y="349.356" type="line"/>
      <point x="892.2192" y="345.218" type="line"/>
      <point x="892.2192" y="382.69" type="line"/>
      <point x="603.5956" y="378.552" type="line"/>
      <point x="603.5956" y="678.666" type="line"/>
      <point x="799.4984" y="678.666" type="line" smooth="yes"/>
      <point x="899.2156000000001" y="678.666"/>
      <point x="939.7356000000001" y="671.666"/>
      <point x="944.1956" y="635.666" type="curve" smooth="yes"/>
      <point x="954.5756000000001" y="545.666" type="line"/>
      <point x="981.8635999999999" y="545.666" type="line"/>
      <point x="981.8635999999999" y="710.0" type="line"/>
      <point x="386.7548" y="710.0" type="line"/>
      <point x="386.7548" y="679.218" type="line"/>
      <point x="401.7604" y="679.218" type="line" smooth="yes"/>
      <point x="462.37160000000006" y="679.218"/>
      <point x="502.944" y="672.218"/>
      <point x="505.65240000000006" y="653.9879999999999" type="curve"/>
      <point x="73.34440000000001" y="73.782" type="line" smooth="yes"/>
      <point x="47.5816" y="39.736000000000004"/>
      <point x="29.950400000000002" y="30.782"/>
      <point x="-8.1556" y="30.782" type="curve" smooth="yes"/>
      <point x="-14.1584" y="30.782" type="line"/>
    </contour>
    <contour>
      <point x="282.9168" y="298.0" type="line"/>
      <point x="563.0344" y="675.942" type="line"/>
      <point x="563.0344" y="298.0" type="line"/>
    </contour>
  </outline>
</glyph>
<glyph name="Thorn" format="2">
  <advance width="677.3844"/>
  <unicode hex="00DE"/>
  <outline>
    <contour>
      <point x="325.12120000000004" y="710.0" type="line"/>
      <point x="52.36" y="710.0" type="line"/>
      <point x="52.36" y="679.218" type="line"/>
      <point x="65.2" y="679.218" type="line" smooth="yes"/>
      <point x="122.02000000000001" y="679.218"/>
      <point x="163.54000000000002" y="672.218"/>
      <point x="163.54000000000002" y="643.218" type="curve" smooth="yes"/>
      <point x="163.54000000000002" y="66.782" type="line" smooth="yes"/>
      <point x="163.54000000000002" y="37.782000000000004"/>
      <point x="122.02000000000001" y="30.782"/>
      <point x="65.2" y="30.782" type="curve" smooth="yes"/>
      <point x="52.36" y="30.782" type="line"/>
      <point x="52.36" y="0.0" type="line"/>
      <point x="325.12120000000004" y="0.0" type="line"/>
      <point x="325.12120000000004" y="30.782" type="line"/>
      <point x="293.4384" y="30.782" type="line" smooth="yes"/>
      <point x="253.9184" y="30.782"/>
      <point x="204.01839999999999" y="33.782000000000004"/>
      <point x="204.01839999999999" y="40.782000000000004" type="curve" smooth="yes"/>
      <point x="204.01839999999999" y="669.218" type="line" smooth="yes"/>
      <point x="204.01839999999999" y="676.218"/>
      <point x="253.9184" y="679.218"/>
      <point x="293.4384" y="679.218" type="curve" smooth="yes"/>
      <point x="325.12120000000004" y="679.218" type="line"/>
    </contour>
    <contour>
      <point x="192.852" y="158.77" type="line"/>
      <point x="356.28520000000003" y="158.77" type="line" smooth="yes"/>
      <point x="555.1271999999999" y="158.77"/>
      <point x="641.2288" y="240.954"/>
      <point x="641.2288" y="361.092" type="curve" smooth="yes"/>
      <point x="641.2288" y="481.23"/>
      <point x="559.5871999999999" y="556.414"/>
      <point x="362.2052" y="556.414" type="curve" smooth="yes"/>
      <point x="191.1132" y="556.414" type="line"/>
      <point x="192.852" y="525.08" type="line"/>
      <point x="362.4536" y="525.08" type="line" smooth="yes"/>
      <point x="532.9248" y="525.08"/>
      <point x="597.7044000000001" y="465.356"/>
      <point x="597.7044000000001" y="360.13800000000003" type="curve" smooth="yes"/>
      <point x="597.7044000000001" y="256.782"/>
      <point x="534.6332" y="190.104"/>
      <point x="356.5336" y="190.104" type="curve" smooth="yes"/>
      <point x="192.852" y="190.104" type="line"/>
    </contour>
  </outline>
</glyph>
<glyph name="ae" format="2">
  <advance width="976.0744"/>
  <unicode hex="00E6"/>
  <anchor x="487.95759999999996" y="555.0" name="top"/>
  <outline>
    <contour>
      <point x="472.64480000000003" y="290.046" type="line"/>
      <point x="201.888" y="267.69"/>
      <point x="66.9452" y="226.46"/>
      <point x="66.9452" y="117.414" type="curve" smooth="yes"/>
      <point x="66.9452" y="39.092"/>
      <point x="139.32" y="-10.0"/>
      <point x="244.2948" y="-10.0" type="curve" smooth="yes"/>
      <point x="355.1436" y="-10.0"/>
      <point x="439.10360000000003" y="51.816"/>
      <point x="482.918" y="138.41400000000002" type="curve"/>
      <point x="498.562" y="158.564"/>
      <point x="470.8996" y="170.69"/>
      <point x="464.3108" y="173.506" type="curve"/>
      <point x="424.3768" y="83.012"/>
      <point x="347.3892" y="21.288"/>
      <point x="246.1816" y="21.288" type="curve" smooth="yes"/>
      <point x="155.4432" y="21.288"/>
      <point x="110.2148" y="58.874"/>
      <point x="110.2148" y="117.46" type="curve" smooth="yes"/>
      <point x="110.2148" y="206.724"/>
      <point x="219.75639999999999" y="238.724"/>
      <point x="471.8104" y="259.08" type="curve"/>
    </contour>
    <contour>
      <point x="704.2716" y="-10.0" type="curve" smooth="yes"/>
      <point x="811.9548" y="-10.0"/>
      <point x="878.9892" y="34.368"/>
      <point x="923.512" y="102.23" type="curve"/>
      <point x="897.856" y="126.104" type="line"/>
      <point x="864.256" y="72.56400000000001"/>
      <point x="807.5252" y="21.242"/>
      <point x="704.0232" y="21.242" type="curve" smooth="yes"/>
      <point x="579.3471999999999" y="21.242"/>
      <point x="482.8112" y="104.782"/>
      <point x="482.8112" y="250.0" type="curve" smooth="yes"/>
      <point x="482.8112" y="396.218"/>
      <point x="572.4272" y="486.804"/>
      <point x="693.2228" y="486.804" type="curve" smooth="yes"/>
      <point x="818.3063999999999" y="486.804"/>
      <point x="874.9084" y="413.31"/>
      <point x="881.2424000000001" y="265.0" type="curve"/>
      <point x="898.6776" y="288.13800000000003" type="line"/>
      <point x="448.91679999999997" y="288.13800000000003" type="line"/>
      <point x="450.4596" y="256.942" type="line"/>
      <point x="924.2636" y="256.942" type="line"/>
      <point x="923.2760087184897" y="424.65968071658403"/>
      <point x="845.9688" y="518.046"/>
      <point x="692.8916" y="518.046" type="curve" smooth="yes"/>
      <point x="574.9112" y="518.046"/>
      <point x="500.95680000000004" y="451.86199999999997"/>
      <point x="461.2712" y="340.86199999999997" type="curve"/>
      <point x="445.64" y="336.08"/>
      <point x="439.0448" y="295.678"/>
      <point x="439.0448" y="252.0" type="curve" smooth="yes"/>
      <point x="439.0448" y="92.0"/>
      <point x="555.5652" y="-10.0"/>
    </contour>
    <contour>
      <point x="289.15520000000004" y="518.0" type="curve" smooth="yes"/>
      <point x="194.3948" y="518.0"/>
      <point x="132.89679999999998" y="485.81600000000003"/>
      <point x="100.3796" y="460.86199999999997" type="curve"/>
      <point x="100.3796" y="382.666" type="line"/>
      <point x="150.72840000000002" y="382.666" type="line"/>
      <point x="150.72840000000002" y="466.586" type="line"/>
      <point x="123.83680000000001" y="466.034"/>
      <point x="116.5728" y="438.448"/>
      <point x="119.7844" y="422.62" type="curve"/>
      <point x="150.09" y="458.62"/>
      <point x="203.0296" y="486.758"/>
      <point x="287.86080000000004" y="486.758" type="curve" smooth="yes"/>
      <point x="387.5652" y="486.758"/>
      <point x="439.0448" y="453.08"/>
      <point x="439.0448" y="350.0" type="curve"/>
      <point x="439.0448" y="266.50600000000003" type="line"/>
      <point x="475.0936" y="359.402" type="line"/>
      <point x="475.0936" y="481.264"/>
      <point x="389.8484" y="518.0"/>
    </contour>
  </outline>
</glyph>
<glyph name="eth" format="2">
  <advance width="628.524"/>
  <unicode hex="00F0"/>
  <outline>
    <contour>
      <point x="533.3976" y="400.414" type="curve"/>
      <point x="501.21160000000003" y="472.598"/>
      <point x="414.16880000000003" y="518.0"/>
      <point x="322.0928" y="518.0" type="curve" smooth="yes"/>
      <point x="160.5528" y="518.0"/>
      <point x="50.6516" y="413.0"/>
      <point x="50.6516" y="256.0" type="curve" smooth="yes"/>
      <point x="50.6516" y="99.0"/>
      <point x="162.5464" y="-10.0"/>
      <point x="318.2188" y="-10.0" type="curve" smooth="yes"/>
      <point x="477.97400000000005" y="-10.0"/>
      <point x="577.4124" y="104.46"/>
      <point x="577.4124" y="292.092" type="curve" smooth="yes"/>
      <point x="577.4124" y="484.0"/>
      <point x="472.89331583433597" y="667.94158428746"/>
      <point x="182.7856" y="757.7239999999999" type="curve"/>
      <point x="168.39000000000001" y="734.804" type="line"/>
      <point x="434.3408632814792" y="645.653531357484"/>
      <point x="532.9772" y="493.402"/>
      <point x="532.9772" y="292.092" type="curve" smooth="yes"/>
      <point x="532.9772" y="120.196"/>
      <point x="460.6088" y="21.242"/>
      <point x="318.2188" y="21.242" type="curve" smooth="yes"/>
      <point x="180.2888" y="21.242"/>
      <point x="94.83840000000001" y="115.736"/>
      <point x="94.83840000000001" y="256.0" type="curve" smooth="yes"/>
      <point x="94.83840000000001" y="395.264"/>
      <point x="187.712" y="486.758"/>
      <point x="321.01640000000003" y="486.758" type="curve" smooth="yes"/>
      <point x="419.59839999999997" y="486.758"/>
      <point x="485.04679999999996" y="441.034"/>
      <point x="548.9524" y="353.632" type="curve"/>
      <point x="563.4612" y="383.586"/>
      <point x="559.2496" y="394.092"/>
    </contour>
    <contour>
      <point x="112.4504" y="584.862" type="line"/>
      <point x="125.2968" y="558.712" type="line"/>
      <point x="507.36879999999996" y="721.3439999999999" type="line"/>
      <point x="494.52240000000006" y="747.494" type="line"/>
    </contour>
  </outline>
</glyph>
<glyph name="Aogonek" format="2">
  <advance width="785.1616"/>
  <unicode hex="0104"/>
  <outline>
    <contour>
      <point x="211.026" y="298.092" type="line"/>
      <point x="204.106" y="266.896" type="line"/>
      <point x="574.2424000000001" y="266.896" type="line"/>
      <point x="573.3252" y="298.092" type="line"/>
    </contour>
    <contour>
      <point x="12.0884" y="0.0" type="line"/>
      <point x="244.9332" y="0.0" type="line"/>
      <point x="244.9332" y="30.782" type="line"/>
      <point x="227.1732" y="30.782" type="line" smooth="yes"/>
      <point x="183.19320000000002" y="30.782"/>
      <point x="129.8332" y="37.782000000000004"/>
      <point x="129.8332" y="48.782000000000004" type="curve"/>
      <point x="399.25239999999997" y="710.0" type="line"/>
      <point x="360.0048" y="710.0" type="line"/>
      <point x="99.0484" y="73.782" type="line" smooth="yes"/>
      <point x="83.7484" y="36.782000000000004"/>
      <point x="60.4456" y="30.782"/>
      <point x="17.465600000000002" y="30.782" type="curve"/>
      <point x="12.0884" y="30.782" type="line"/>
    </contour>
    <contour>
      <point x="674.9532" y="29.552" type="curve"/>
      <point x="584.1368" y="-18.092"/>
      <point x="517.636" y="-69.368"/>
      <point x="517.636" y="-140.23" type="curve" smooth="yes"/>
      <point x="517.636" y="-198.184"/>
      <point x="567.2876" y="-233.138"/>
      <point x="626.8684" y="-233.138" type="curve" smooth="yes"/>
      <point x="675.7748" y="-233.138"/>
      <point x="714.4144" y="-211.276"/>
      <point x="746.3456" y="-180.46" type="curve"/>
      <point x="725.202" y="-159.816" type="line"/>
      <point x="698.4456" y="-182.31"/>
      <point x="672.8944" y="-202.126"/>
      <point x="631.9667999999999" y="-202.126" type="curve" smooth="yes"/>
      <point x="592.2876" y="-202.126"/>
      <point x="558.4456" y="-180.448"/>
      <point x="558.4456" y="-139.816" type="curve" smooth="yes"/>
      <point x="558.4456" y="-83.552"/>
      <point x="594.2508" y="-45.954"/>
      <point x="680.1408" y="1.322" type="curve"/>
      <point x="679.7968000000001" y="9.006"/>
      <point x="673.7940000000001" y="21.368000000000002"/>
    </contour>
    <contour>
      <point x="670.0268" y="0.0" type="line"/>
      <point x="773.0732" y="0.0" type="line"/>
      <point x="773.0732" y="30.782" type="line"/>
      <point x="767.1532" y="30.782" type="line"/>
      <point x="727.6332" y="30.782"/>
      <point x="701.9532" y="32.782000000000004"/>
      <point x="691.5732" y="58.782000000000004" type="curve" smooth="yes"/>
      <point x="421.154" y="710.0" type="line"/>
      <point x="382.81080000000003" y="710.0" type="line"/>
      <point x="381.5624" y="702.528" type="line"/>
    </contour>
  </outline>
</glyph>
<glyph name="eogonek" format="2">
  <advance width="590.7428"/>
  <unicode hex="0119"/>
  <outline>
    <contour>
      <point x="414.4824" y="18.874" type="line"/>
      <point x="333.414" y="-24.77"/>
      <point x="245.7916" y="-69.368"/>
      <point x="245.7916" y="-140.23" type="curve" smooth="yes"/>
      <point x="245.7916" y="-198.184"/>
      <point x="295.4432" y="-233.138"/>
      <point x="354.4812" y="-233.138" type="curve" smooth="yes"/>
      <point x="403.3876" y="-233.138"/>
      <point x="442.65279999999996" y="-211.276"/>
      <point x="474.50120000000004" y="-180.46" type="curve"/>
      <point x="453.3576" y="-159.816" type="line"/>
      <point x="426.68399999999997" y="-182.31"/>
      <point x="400.5072" y="-202.126"/>
      <point x="360.2052" y="-202.126" type="curve" smooth="yes"/>
      <point x="320.526" y="-202.126"/>
      <point x="286.68399999999997" y="-180.448"/>
      <point x="286.68399999999997" y="-139.816" type="curve" smooth="yes"/>
      <point x="286.68399999999997" y="-70.368"/>
      <point x="387.8264" y="-24.736"/>
      <point x="466.8424" y="27.046" type="curve" smooth="yes"/>
      <point x="500.5316" y="49.322"/>
      <point x="520.2088" y="73.276"/>
      <point x="537.3432" y="100.322" type="curve"/>
      <point x="512.3127999999999" y="124.196" type="line"/>
      <point x="478.5472" y="70.56400000000001"/>
      <point x="421.31320000000005" y="19.334"/>
      <point x="317.308" y="19.334" type="curve" smooth="yes"/>
      <point x="191.6688" y="19.334"/>
      <point x="94.08680000000001" y="102.87400000000001"/>
      <point x="94.08680000000001" y="249.046" type="curve" smooth="yes"/>
      <point x="94.08680000000001" y="396.218"/>
      <point x="183.666" y="486.758"/>
      <point x="306.5444" y="486.758" type="curve" smooth="yes"/>
      <point x="431.5516" y="486.758"/>
      <point x="489.3652" y="413.264"/>
      <point x="495.6164" y="265.0" type="curve"/>
      <point x="513.1344" y="281.276" type="line"/>
      <point x="73.19160000000001" y="281.276" type="line"/>
      <point x="74.7344" y="250.08" type="line"/>
      <point x="538.6376" y="250.08" type="line"/>
      <point x="537.1776" y="423.0"/>
      <point x="459.7568" y="518.0"/>
      <point x="306.5444" y="518.0" type="curve" smooth="yes"/>
      <point x="160.13240000000002" y="518.0"/>
      <point x="50.6516" y="409.0"/>
      <point x="50.6516" y="251.046" type="curve" smooth="yes"/>
      <point x="50.6516" y="90.092"/>
      <point x="168.1352" y="-11.908"/>
      <point x="317.5564" y="-11.908" type="curve" smooth="yes"/>
      <point x="348.45439999999996" y="-11.908"/>
      <point x="377.932" y="-7.77"/>
      <point x="402.94960000000003" y="-0.54" type="curve"/>
    </contour>
  </outline>
</glyph>
<glyph name="Ldot" format="2">
  <advance width="672.7828000000001"/>
  <unicode hex="013F"/>
  <outline>
    <contour>
      <point x="320.1184" y="710.0" type="line"/>
      <point x="320.1184" y="679.218" type="line"/>
      <point x="307.2784" y="679.218" type="line" smooth="yes"/>
      <point x="246.9984" y="679.218"/>
      <point x="204.01839999999999" y="672.218"/>
      <point x="204.01839999999999" y="643.218" type="curve" smooth="yes"/>
      <point x="204.01839999999999" y="31.334" type="line"/>
      <point x="425.7668" y="31.334" type="line" smooth="yes"/>
      <point x="525.5668" y="31.334"/>
      <point x="566.004" y="38.334"/>
      <point x="569.4639999999999" y="74.334" type="curve" smooth="yes"/>
      <point x="581.3868" y="196.334" type="line"/>
      <point x="607.718" y="196.334" type="line"/>
      <point x="607.718" y="0.0" type="line"/>
      <point x="52.36" y="0.0" type="line"/>
      <point x="52.36" y="30.782" type="line"/>
      <point x="65.2" y="30.782" type="line" smooth="yes"/>
      <point x="122.02000000000001" y="30.782"/>
      <point x="163.54000000000002" y="37.782000000000004"/>
      <point x="163.54000000000002" y="66.782" type="curve" smooth="yes"/>
      <point x="163.54000000000002" y="643.218" type="line" smooth="yes"/>
      <point x="163.54000000000002" y="672.218"/>
      <point x="122.02000000000001" y="679.218"/>
      <point x="65.2" y="679.218" type="curve" smooth="yes"/>
      <point x="52.36" y="679.218" type="line"/>
      <point x="52.36" y="710.0" type="line"/>
    </contour>
    <component base="periodcentered" xOffset="420.2548" yOffset="56.54"/>
  </outline>
</glyph>
<glyph name="dotaccent" format="2">
  <advance width="580.4172"/>
  <unicode hex="02D9"/>
  <anchor x="290.48" y="526.0" name="_top"/>
  <outline>
    <contour>
      <point x="291.56280000000004" y="655.2520000000001" type="curve" smooth="yes"/>
      <point x="316.918" y="655.2520000000001"/>
      <point x="335.6844" y="669.666"/>
      <point x="335.6844" y="696.218" type="curve" smooth="yes"/>
      <point x="335.6844" y="722.7239999999999"/>
      <point x="316.918" y="737.138"/>
      <point x="291.56280000000004" y="737.138" type="curve" smooth="yes"/>
      <point x="266.2904" y="737.138"/>
      <point x="247.524" y="722.7239999999999"/>
      <point x="247.524" y="696.218" type="curve" smooth="yes"/>
      <point x="247.524" y="669.666"/>
      <point x="266.2904" y="655.2520000000001"/>
    </contour>
  </outline>
</glyph>
<glyph name="perthousand" format="2">
  <advance width="1284.0088"/>
  <unicode hex="2030"/>
  <outline>
    <contour>
      <point x="225.3628" y="412.782" type="curve" smooth="yes"/>
      <point x="153.792" y="412.782"/>
      <point x="110.2324" y="469.46"/>
      <point x="110.2324" y="551.0" type="curve" smooth="yes"/>
      <point x="110.2324" y="632.54"/>
      <point x="153.792" y="689.218"/>
      <point x="225.3628" y="689.218" type="curve" smooth="yes"/>
      <point x="297.0164" y="689.218"/>
      <point x="340.576" y="632.54"/>
      <point x="340.576" y="551.0" type="curve" smooth="yes"/>
      <point x="340.576" y="469.46"/>
      <point x="297.0164" y="412.782"/>
    </contour>
    <contour>
      <point x="225.3628" y="382.0" type="curve" smooth="yes"/>
      <point x="319.4608" y="382.0"/>
      <point x="386.6672" y="454.0"/>
      <point x="386.6672" y="551.0" type="curve" smooth="yes"/>
      <point x="386.6672" y="649.0"/>
      <point x="319.4608" y="720.0"/>
      <point x="225.3628" y="720.0" type="curve" smooth="yes"/>
      <point x="131.3476" y="720.0"/>
      <point x="64.1412" y="648.0"/>
      <point x="64.1412" y="551.0" type="curve" smooth="yes"/>
      <point x="64.1412" y="453.0"/>
      <point x="131.3476" y="382.0"/>
    </contour>
    <contour>
      <point x="95.832" y="0.0" type="line"/>
      <point x="821.8968" y="710.0" type="line"/>
      <point x="779.3484" y="710.0" type="line"/>
      <point x="53.28360000000001" y="0.0" type="line"/>
    </contour>
    <contour>
      <point x="644.5536" y="20.782" type="curve" smooth="yes"/>
      <point x="572.9" y="20.782"/>
      <point x="529.3404" y="77.46"/>
      <point x="529.3404" y="159.0" type="curve" smooth="yes"/>
      <point x="529.3404" y="240.54"/>
      <point x="572.9" y="297.218"/>
      <point x="644.5536" y="297.218" type="curve" smooth="yes"/>
      <point x="716.75" y="297.218"/>
      <point x="760.3096" y="240.54"/>
      <point x="760.3096" y="159.0" type="curve" smooth="yes"/>
      <point x="760.3096" y="77.46"/>
      <point x="716.75" y="20.782"/>
    </contour>
    <contour>
      <point x="644.5536" y="-10.0" type="curve" smooth="yes"/>
      <point x="738.5688" y="-10.0"/>
      <point x="806.4008" y="62.0"/>
      <point x="806.4008" y="159.0" type="curve" smooth="yes"/>
      <point x="806.4008" y="257.0"/>
      <point x="738.5688" y="328.0"/>
      <point x="644.5536" y="328.0" type="curve" smooth="yes"/>
      <point x="551.0812000000001" y="328.0"/>
      <point x="483.2492" y="256.0"/>
      <point x="483.2492" y="159.0" type="curve" smooth="yes"/>
      <point x="483.2492" y="61.0"/>
      <point x="551.0812000000001" y="-10.0"/>
    </contour>
    <contour>
      <point x="1066.6884" y="20.782" type="curve" smooth="yes"/>
      <point x="994.492" y="20.782"/>
      <point x="950.9324" y="77.46"/>
      <point x="950.9324" y="159.0" type="curve" smooth="yes"/>
      <point x="950.9324" y="240.54"/>
      <point x="994.492" y="297.218"/>
      <point x="1066.6884" y="297.218" type="curve" smooth="yes"/>
      <point x="1138.342" y="297.218"/>
      <point x="1181.9016000000001" y="240.54"/>
      <point x="1181.9016000000001" y="159.0" type="curve" smooth="yes"/>
      <point x="1181.9016000000001" y="77.46"/>
      <point x="1138.342" y="20.782"/>
    </contour>
    <contour>
      <point x="1066.6884" y="-10.0" type="curve" smooth="yes"/>
      <point x="1160.1608" y="-10.0"/>
      <point x="1227.9928" y="62.0"/>
      <point x="1227.9928" y="159.0" type="curve" smooth="yes"/>
      <point x="1227.9928" y="257.0"/>
      <point x="1160.1608" y="328.0"/>
      <point x="1066.6884" y="328.0" type="curve" smooth="yes"/>
      <point x="972.6732000000001" y="328.0"/>
      <point x="904.8412000000001" y="256.0"/>
      <point x="904.8412000000001" y="159.0" type="curve" smooth="yes"/>
      <point x="904.8412000000001" y="61.0"/>
      <point x="972.6732000000001" y="-10.0"/>
    </contour>
  </outline>
</glyph>
<glyph name="lira" format="2">
  <advance width="650.1600000000001"/>
  <unicode hex="20A4"/>
  <outline>
    <contour>
      <point x="54.098800000000004" y="428.50600000000003" type="line"/>
      <point x="54.098800000000004" y="397.49399999999997" type="line"/>
      <point x="463.0688" y="397.49399999999997" type="line"/>
      <point x="463.0688" y="428.50600000000003" type="line"/>
    </contour>
    <contour>
      <point x="54.098800000000004" y="273.50600000000003" type="line"/>
      <point x="54.098800000000004" y="242.494" type="line"/>
      <point x="463.0688" y="242.494" type="line"/>
      <point x="463.0688" y="273.50600000000003" type="line"/>
    </contour>
    <contour>
      <point x="49.5864" y="-11.0" type="line"/>
      <point x="202.1364" y="18.184"/>
      <point x="265.88919999999996" y="106.184"/>
      <point x="265.88919999999996" y="218.874" type="curve" smooth="yes"/>
      <point x="265.88919999999996" y="337.644"/>
      <point x="167.14800000000002" y="409.13800000000003"/>
      <point x="167.14800000000002" y="532.586" type="curve" smooth="yes"/>
      <point x="167.14800000000002" y="626.08"/>
      <point x="242.3904" y="686.62"/>
      <point x="360.4776" y="686.62" type="curve" smooth="yes"/>
      <point x="459.47360000000003" y="686.62"/>
      <point x="509.3736" y="650.9879999999999"/>
      <point x="534.1428000000001" y="625.7579999999999" type="curve"/>
      <point x="539.1824" y="623.816"/>
      <point x="535.5504000000001" y="661.172"/>
      <point x="515.7012" y="662.218" type="curve"/>
      <point x="515.7012" y="560.9879999999999" type="line"/>
      <point x="567.05" y="560.9879999999999" type="line"/>
      <point x="567.05" y="655.138" type="line"/>
      <point x="543.1152" y="673.506"/>
      <point x="477.9088" y="718.0"/>
      <point x="360.4776" y="718.0" type="curve" smooth="yes"/>
      <point x="213.1024" y="718.0"/>
      <point x="122.96119999999999" y="638.954"/>
      <point x="122.96119999999999" y="527.586" type="curve" smooth="yes"/>
      <point x="122.96119999999999" y="405.13800000000003"/>
      <point x="228.00600000000003" y="323.644"/>
      <point x="228.00600000000003" y="203.874" type="curve" smooth="yes"/>
      <point x="228.00600000000003" y="120.644"/>
      <point x="183.6488" y="50.794"/>
      <point x="49.5864" y="20.656" type="curve"/>
    </contour>
    <contour>
      <point x="218.9572" y="104.782" type="line"/>
      <point x="306.1284256201288" y="41.6884065275324"/>
      <point x="355.60523050840163" y="-10.0"/>
      <point x="440.0972" y="-10.0" type="curve" smooth="yes"/>
      <point x="544.198" y="-10.0"/>
      <point x="599.19" y="68.368"/>
      <point x="622.7411999999999" y="151.104" type="curve"/>
      <point x="592.2048" y="164.334" type="line"/>
      <point x="569.1341129573632" y="92.39319260347119"/>
      <point x="530.8420000000001" y="36.116"/>
      <point x="441.8488" y="36.116" type="curve" smooth="yes"/>
      <point x="377.969453658476" y="36.116"/>
      <point x="318.4210310085144" y="73.512992106684"/>
      <point x="234.02160000000003" y="132.84" type="curve"/>
    </contour>
  </outline>
</glyph>
<glyph name="Euro" format="2">
  <advance width="650.1600000000001"/>
  <unicode hex="20AC"/>
  <outline>
    <contour>
      <point x="25.9284" y="437.644" type="line"/>
      <point x="25.9284" y="406.448" type="line"/>
      <point x="439.4476" y="406.448" type="line"/>
      <point x="439.4476" y="437.644" type="line"/>
    </contour>
    <contour>
      <point x="25.9284" y="286.46" type="line"/>
      <point x="25.9284" y="255.264" type="line"/>
      <point x="395.7924" y="255.264" type="line"/>
      <point x="395.7924" y="286.46" type="line"/>
    </contour>
    <contour>
      <point x="401.2396" y="-10.0" type="curve" smooth="yes"/>
      <point x="527.7196" y="-10.0"/>
      <point x="587.0124000000001" y="52.368"/>
      <point x="623.3208" y="132.426" type="curve"/>
      <point x="595.9068" y="150.932" type="line"/>
      <point x="567.5183999999999" y="87.426"/>
      <point x="519.5752" y="21.472"/>
      <point x="400.5772" y="21.472" type="curve" smooth="yes"/>
      <point x="255.48520000000002" y="21.472"/>
      <point x="158.24079999999998" y="116.92"/>
      <point x="158.24079999999998" y="349.276" type="curve" smooth="yes"/>
      <point x="158.24079999999998" y="598.9879999999999"/>
      <point x="268.5736" y="687.574"/>
      <point x="415.718" y="687.574" type="curve" smooth="yes"/>
      <point x="486.5436" y="687.574"/>
      <point x="552.0224000000001" y="665.298"/>
      <point x="586.616" y="623.896" type="curve"/>
      <point x="590.2112" y="631.31"/>
      <point x="576.5672" y="662.264"/>
      <point x="562.5856" y="664.586" type="curve"/>
      <point x="562.5856" y="573.85" type="line"/>
      <point x="613.4376" y="573.85" type="line"/>
      <point x="613.4376" y="654.874" type="line"/>
      <point x="585.7575999999999" y="684.322"/>
      <point x="507.77" y="719.046"/>
      <point x="415.718" y="719.046" type="curve" smooth="yes"/>
      <point x="241.9176" y="719.046"/>
      <point x="114.1368" y="613.77"/>
      <point x="114.1368" y="349.276" type="curve" smooth="yes"/>
      <point x="114.1368" y="102.0"/>
      <point x="229.5744" y="-10.0"/>
    </contour>
  </outline>
</glyph>
<glyph name="guarani" format="2">
  <advance width="648.5344"/>
  <unicode hex="20B2"/>
  <outline>
    <contour>
      <point x="434.26" y="353.23" type="line"/>
      <point x="434.26" y="322.448" type="line"/>
      <point x="447.7624" y="322.448" type="line" smooth="yes"/>
      <point x="492.8366760397303" y="322.448"/>
      <point x="526.6544" y="315.448"/>
      <point x="526.6544" y="286.448" type="curve"/>
      <point x="561.2128" y="286.448" type="line"/>
      <point x="561.2128" y="315.448"/>
      <point x="588.1914133338753" y="322.448"/>
      <point x="625.4496" y="322.448" type="curve" smooth="yes"/>
      <point x="629.9096" y="322.448" type="line"/>
      <point x="629.9096" y="353.23" type="line"/>
    </contour>
    <contour>
      <point x="306.9824" y="790.0" type="line"/>
      <point x="306.9824" y="684.264" type="line"/>
      <point x="306.9824" y="679.9879999999999" type="line"/>
      <point x="306.9824" y="29.966" type="line"/>
      <point x="306.9824" y="24.69" type="line"/>
      <point x="306.9824" y="-120.0" type="line"/>
      <point x="346.31280000000004" y="-120.0" type="line"/>
      <point x="346.31280000000004" y="21.874" type="line"/>
      <point x="346.31280000000004" y="28.058" type="line"/>
      <point x="346.31280000000004" y="677.896" type="line"/>
      <point x="346.31280000000004" y="685.402" type="line"/>
      <point x="346.31280000000004" y="790.0" type="line"/>
    </contour>
    <contour>
      <point x="343.1776" y="10.0" type="curve"/>
      <point x="448.0172" y="10.0"/>
      <point x="525.4839999999999" y="56.954"/>
      <point x="561.2128" y="104.862" type="curve"/>
      <point x="561.2128" y="332.448" type="line"/>
      <point x="526.6544" y="340.448" type="line"/>
      <point x="526.6544" y="111.77" type="line"/>
      <point x="504.186" y="85.276"/>
      <point x="451.8324" y="41.288"/>
      <point x="344.1776" y="41.288" type="curve"/>
      <point x="184.49499016400318" y="41.288"/>
      <point x="92.44839999999999" y="159.828"/>
      <point x="92.44839999999999" y="355.0" type="curve" smooth="yes"/>
      <point x="92.44839999999999" y="554.712"/>
      <point x="190.8435510204352" y="668.712"/>
      <point x="347.5612" y="668.712" type="curve"/>
      <point x="457.25559999999996" y="668.712"/>
      <point x="504.4168" y="626.54"/>
      <point x="527.2292" y="594.838" type="curve"/>
      <point x="543.3571999999999" y="594.586"/>
      <point x="553.8312000000001" y="631.356"/>
      <point x="506.404" y="638.126" type="curve"/>
      <point x="506.404" y="537.034" type="line"/>
      <point x="559.1732000000001" y="537.034" type="line"/>
      <point x="559.1732000000001" y="627.08" type="line"/>
      <point x="526.3184" y="657.552"/>
      <point x="462.9336" y="700.0"/>
      <point x="348.058" y="700.0" type="curve"/>
      <point x="167.8216" y="700.0"/>
      <point x="48.6756" y="572.264"/>
      <point x="48.6756" y="355.0" type="curve" smooth="yes"/>
      <point x="48.6756" y="147.09199999999998"/>
      <point x="162.9476" y="10.0"/>
    </contour>
  </outline>
</glyph>
<glyph name="Pcircle" format="2">
  <advance width="975.1572000000001"/>
  <unicode hex="24C5"/>
  <outline>
    <contour>
      <point x="86.0188" y="355.0" type="curve" smooth="yes"/>
      <point x="86.0188" y="554.356"/>
      <point x="253.8468" y="707.08"/>
      <point x="487.62" y="707.08" type="curve" smooth="yes"/>
      <point x="721.3932" y="707.08"/>
      <point x="889.1384" y="554.356"/>
      <point x="889.1384" y="355.0" type="curve" smooth="yes"/>
      <point x="889.1384" y="155.644"/>
      <point x="721.3932" y="2.92"/>
      <point x="487.62" y="2.92" type="curve" smooth="yes"/>
      <point x="253.8468" y="2.92"/>
      <point x="86.0188" y="155.644"/>
    </contour>
    <contour>
      <point x="46.44" y="355.0" type="curve" smooth="yes"/>
      <point x="46.44" y="138.0"/>
      <point x="238.12" y="-28.0"/>
      <point x="487.62" y="-28.0" type="curve" smooth="yes"/>
      <point x="736.9544000000001" y="-28.0"/>
      <point x="928.7172" y="138.0"/>
      <point x="928.7172" y="355.0" type="curve" smooth="yes"/>
      <point x="928.7172" y="572.0"/>
      <point x="736.9544000000001" y="738.0"/>
      <point x="487.62" y="738.0" type="curve" smooth="yes"/>
      <point x="238.12" y="738.0"/>
      <point x="46.44" y="572.0"/>
    </contour>
    <contour>
      <point x="323.104" y="153.0" type="line"/>
      <point x="509.92920000000004" y="153.0" type="line"/>
      <point x="509.92920000000004" y="180.69" type="line"/>
      <point x="480.2096" y="180.69" type="line" smooth="yes"/>
      <point x="458.53240000000005" y="180.69"/>
      <point x="429.3924" y="181.69"/>
      <point x="429.3924" y="185.69" type="curve" smooth="yes"/>
      <point x="429.3924" y="309.54" type="line"/>
      <point x="521.3028" y="309.54" type="line" smooth="yes"/>
      <point x="622.4036000000001" y="309.54"/>
      <point x="693.3644" y="358.632"/>
      <point x="693.3644" y="436.77" type="curve" smooth="yes"/>
      <point x="693.3644" y="512.908"/>
      <point x="628.3236" y="557.0"/>
      <point x="524.7628" y="557.0" type="curve" smooth="yes"/>
      <point x="323.104" y="557.0" type="line"/>
      <point x="323.104" y="529.31" type="line"/>
      <point x="330.024" y="529.31" type="line" smooth="yes"/>
      <point x="362.0812" y="529.31"/>
      <point x="386.844" y="525.31"/>
      <point x="386.844" y="509.31" type="curve" smooth="yes"/>
      <point x="386.844" y="200.69" type="line" smooth="yes"/>
      <point x="386.844" y="184.69"/>
      <point x="362.0812" y="180.69"/>
      <point x="330.024" y="180.69" type="curve" smooth="yes"/>
      <point x="323.104" y="180.69" type="line"/>
    </contour>
    <contour>
      <point x="524.8456" y="526.31" type="line" smooth="yes"/>
      <point x="607.5876000000001" y="526.31"/>
      <point x="647.4388" y="500.461142857156"/>
      <point x="647.4388" y="436.77" type="curve" smooth="yes"/>
      <point x="647.4388" y="373.080649350684"/>
      <point x="607.5876000000001" y="340.23"/>
      <point x="521.4684" y="340.23" type="curve" smooth="yes"/>
      <point x="429.3924" y="340.23" type="line"/>
      <point x="429.3924" y="526.31" type="line"/>
    </contour>
  </outline>
</glyph>
<glyph name="f_f" format="2">
  <advance width="805.2592"/>
  <unicode hex="FB00"/>
  <outline>
    <contour>
      <point x="40.1888" y="508.0" type="line"/>
      <point x="40.1888" y="479.62" type="line"/>
      <point x="516.222" y="479.62" type="line"/>
      <point x="516.222" y="508.0" type="line"/>
    </contour>
    <contour>
      <point x="419.0124" y="508.0" type="line"/>
      <point x="419.0124" y="479.62" type="line"/>
      <point x="768.8808" y="479.62" type="line"/>
      <point x="768.8808" y="508.0" type="line"/>
    </contour>
    <contour>
      <point x="202.184" y="37.827999999999996" type="curve"/>
      <point x="202.184" y="576.08" type="line" smooth="yes"/>
      <point x="202.184" y="675.218"/>
      <point x="245.9156" y="708.712"/>
      <point x="320.0292" y="708.712" type="curve" smooth="yes"/>
      <point x="357.42040000000003" y="708.712"/>
      <point x="387.5604" y="699.712"/>
      <point x="412.406" y="691.712" type="curve"/>
      <point x="412.406" y="727.046" type="line"/>
      <point x="391.0204" y="733.046"/>
      <point x="357.5032" y="737.046"/>
      <point x="322.6548" y="737.046" type="curve" smooth="yes"/>
      <point x="227.3084" y="737.046"/>
      <point x="161.2088" y="690.2760000000001"/>
      <point x="161.2088" y="576.08" type="curve" smooth="yes"/>
      <point x="161.2088" y="63.827999999999996" type="line" smooth="yes"/>
      <point x="161.2088" y="34.827999999999996"/>
      <point x="122.6888" y="27.828"/>
      <point x="58.948800000000006" y="27.828" type="curve" smooth="yes"/>
      <point x="46.1088" y="27.828" type="line"/>
      <point x="46.1088" y="0.0" type="line"/>
      <point x="329.93640000000005" y="0.0" type="line"/>
      <point x="329.93640000000005" y="27.828" type="line"/>
      <point x="314.02" y="27.828" type="line" smooth="yes"/>
      <point x="250.36919999999998" y="27.828"/>
      <point x="202.184" y="30.828"/>
    </contour>
    <contour>
      <point x="539.4896" y="37.827999999999996" type="line"/>
      <point x="539.4896" y="30.828"/>
      <point x="485.72200000000004" y="27.828"/>
      <point x="443.7292" y="27.828" type="curve" smooth="yes"/>
      <point x="424.3896" y="27.828" type="line"/>
      <point x="424.3896" y="0.0" type="line"/>
      <point x="705.9448" y="0.0" type="line"/>
      <point x="705.9448" y="27.828" type="line"/>
      <point x="690.6448" y="27.828" type="line" smooth="yes"/>
      <point x="627.9048" y="27.828"/>
      <point x="580.4648" y="30.828"/>
      <point x="580.4648" y="37.827999999999996" type="curve" smooth="yes"/>
      <point x="580.4648" y="594.85" type="line" smooth="yes"/>
      <point x="580.4648" y="693.9879999999999"/>
      <point x="626.7392" y="720.804"/>
      <point x="703.23" y="720.804" type="curve" smooth="yes"/>
      <point x="736.5816" y="720.804"/>
      <point x="766.4732" y="714.666"/>
      <point x="789.6104" y="707.62" type="curve"/>
      <point x="789.6104" y="742.0" type="line"/>
      <point x="771.0160000000001" y="748.0"/>
      <point x="740.4556" y="752.0"/>
      <point x="705.7728000000001" y="752.0" type="curve" smooth="yes"/>
      <point x="607.9664" y="752.0"/>
      <point x="539.4896" y="709.046"/>
      <point x="539.4896" y="594.85" type="curve"/>
    </contour>
  </outline>
</glyph>
<glyph name="blackcircle" format="2">
  <advance width="687.6800000000001"/>
  <outline>
    <contour>
      <point x="343.84000000000003" y="80.0" type="curve" smooth="yes"/>
      <point x="490.08000000000004" y="80.0"/>
      <point x="606.1800000000001" y="177.0"/>
      <point x="606.1800000000001" y="304.0" type="curve" smooth="yes"/>
      <point x="606.1800000000001" y="431.0"/>
      <point x="490.08000000000004" y="528.0"/>
      <point x="343.84000000000003" y="528.0" type="curve" smooth="yes"/>
      <point x="197.6" y="528.0"/>
      <point x="81.03999999999999" y="431.0"/>
      <point x="81.03999999999999" y="304.0" type="curve" smooth="yes"/>
      <point x="81.03999999999999" y="177.0"/>
      <point x="197.6" y="80.0"/>
    </contour>
  </outline>
</glyph>
<glyph name="blacksquare" format="2">
  <advance width="682.76"/>
  <outline>
    <contour>
      <point x="98.8" y="104.0" type="line"/>
      <point x="583.96" y="104.0" type="line"/>
      <point x="583.96" y="522.0" type="line"/>
      <point x="98.8" y="522.0" type="line"/>
    </contour>
  </outline>
</glyph>
<glyph name="bracketleft.uc" format="2">
  <advance width="308.7448"/>
  <outline>
    <contour>
      <point x="69.66" y="750.92" type="line"/>
      <point x="69.66" y="-41.15" type="line"/>
      <point x="111.62880000000001" y="-41.15" type="line"/>
      <point x="111.62880000000001" y="750.92" type="line"/>
    </contour>
    <contour>
      <point x="280.1844" y="750.92" type="line"/>
      <point x="103.64359999999999" y="750.92" type="line"/>
      <point x="103.64359999999999" y="720.0" type="line"/>
      <point x="280.1844" y="720.0" type="line"/>
    </contour>
    <contour>
      <point x="280.1844" y="-10.23" type="line"/>
      <point x="103.64359999999999" y="-10.23" type="line"/>
      <point x="103.64359999999999" y="-41.15" type="line"/>
      <point x="280.1844" y="-41.15" type="line"/>
    </contour>
  </outline>
</glyph>
<glyph name="breve_tilde" format="2">
  <advance width="579.3408"/>
  <anchor x="310.022" y="524.0" name="_top"/>
  <outline>
    <contour>
      <point x="360.4776" y="774.494" type="curve" smooth="yes"/>
      <point x="412.9268" y="774.494"/>
      <point x="438.1992" y="810.816"/>
      <point x="460.6676" y="873.23" type="curve"/>
      <point x="430.1376" y="882.598" type="line"/>
      <point x="412.42359999999996" y="836.966"/>
      <point x="398.1236" y="809.104"/>
      <point x="366.0664" y="809.104" type="curve" smooth="yes"/>
      <point x="311.50120000000004" y="809.104"/>
      <point x="283.8148" y="885.322"/>
      <point x="201.404" y="885.322" type="curve" smooth="yes"/>
      <point x="151.0772" y="885.322"/>
      <point x="119.64280000000001" y="851.046"/>
      <point x="106.2168" y="784.6320000000001" type="curve"/>
      <point x="136.664" y="774.356" type="line"/>
      <point x="148.2096" y="823.942"/>
      <point x="160.88400000000001" y="850.7579999999999"/>
      <point x="197.2752" y="850.7579999999999" type="curve" smooth="yes"/>
      <point x="250.87720000000002" y="850.7579999999999"/>
      <point x="274.938" y="774.494"/>
    </contour>
    <contour>
      <point x="293.7744" y="593.356" type="curve" smooth="yes"/>
      <point x="214.1024" y="593.356"/>
      <point x="160.736" y="638.448"/>
      <point x="154.816" y="721.908" type="curve"/>
      <point x="186.56400000000002" y="721.908" type="line"/>
      <point x="197.19240000000002" y="658.414"/>
      <point x="231.95800000000003" y="634.69"/>
      <point x="294.526" y="634.69" type="curve" smooth="yes"/>
      <point x="354.3856" y="634.69"/>
      <point x="391.9424" y="658.414"/>
      <point x="402.5708" y="721.908" type="curve"/>
      <point x="432.10720000000003" y="721.908" type="line"/>
      <point x="426.1872" y="638.448"/>
      <point x="372.9036" y="593.356"/>
    </contour>
  </outline>
</glyph>
<glyph name="caroncomb.alt" format="2">
  <anchor x="-267.11760000000004" y="524.392" name="_right"/>
  <outline>
    <contour>
      <point x="-200.28560000000002" y="526.0" type="line"/>
      <point x="-225.1136" y="526.0" type="line"/>
      <point x="-225.1136" y="536.0" type="line"/>
      <point x="-204.35359999999997" y="710.0" type="line"/>
      <point x="-150.6276" y="710.0" type="line"/>
    </contour>
  </outline>
</glyph>
<glyph name="cent.proportional" format="2">
  <advance width="650.1600000000001"/>
  <outline>
    <contour>
      <point x="322.19960000000003" y="623.0" type="line"/>
      <point x="322.19960000000003" y="505.08" type="line"/>
      <point x="322.19960000000003" y="496.896" type="line"/>
      <point x="322.19960000000003" y="7.8740000000000006" type="line"/>
      <point x="322.19960000000003" y="1.368" type="line"/>
      <point x="322.19960000000003" y="-126.0" type="line"/>
      <point x="361.53" y="-126.0" type="line"/>
      <point x="361.53" y="-1.08" type="line"/>
      <point x="361.53" y="8.104" type="line"/>
      <point x="361.53" y="495.08" type="line"/>
      <point x="361.53" y="502.632" type="line"/>
      <point x="361.53" y="623.0" type="line"/>
    </contour>
    <contour>
      <point x="344.3496" y="19.288" type="curve" smooth="yes"/>
      <point x="207.1648" y="19.288"/>
      <point x="116.4964" y="106.012"/>
      <point x="116.4964" y="252.724" type="curve" smooth="yes"/>
      <point x="116.4964" y="391.218"/>
      <point x="199.4932" y="486.712"/>
      <point x="357.68" y="486.712" type="curve" smooth="yes"/>
      <point x="444.39160000000004" y="486.712"/>
      <point x="511.6744" y="455.252"/>
      <point x="539.8972" y="424.16" type="curve"/>
      <point x="551.4428" y="445.206"/>
      <point x="542.9736" y="450.54"/>
      <point x="515.6248" y="460.942" type="curve"/>
      <point x="515.6248" y="365.252" type="line"/>
      <point x="567.4704" y="365.252" type="line"/>
      <point x="567.4704" y="456.54" type="line"/>
      <point x="543.2872" y="477.632"/>
      <point x="474.1176" y="518.0"/>
      <point x="357.68" y="518.0" type="curve" smooth="yes"/>
      <point x="177.0424" y="518.0"/>
      <point x="72.144" y="405.908"/>
      <point x="72.144" y="252.724" type="curve" smooth="yes"/>
      <point x="72.144" y="91.23"/>
      <point x="188.88240000000002" y="-12.0"/>
      <point x="344.6808" y="-12.0" type="curve" smooth="yes"/>
      <point x="471.1608" y="-12.0"/>
      <point x="539.3240000000001" y="51.586"/>
      <point x="576.9332" y="123.356" type="curve"/>
      <point x="551.36" y="147.138" type="line"/>
      <point x="524.5908000000001" y="87.782"/>
      <point x="461.4432" y="19.288"/>
    </contour>
  </outline>
</glyph>
<glyph name="circumflex.uc" format="2">
  <advance width="580.96"/>
  <anchor x="284.56" y="694.0" name="_top"/>
  <outline>
    <contour>
      <point x="328.298" y="884.0120000000001" type="line"/>
      <point x="456.4864" y="759.552" type="line"/>
      <point x="456.4864" y="749.414" type="line"/>
      <point x="432.78720000000004" y="749.414" type="line"/>
      <point x="255.89280000000002" y="866.08" type="line"/>
      <point x="311.6016" y="866.08" type="line"/>
      <point x="142.2896" y="749.414" type="line"/>
      <point x="124.0136" y="749.414" type="line"/>
      <point x="124.0136" y="759.552" type="line"/>
      <point x="250.5764" y="884.0120000000001" type="line"/>
    </contour>
  </outline>
</glyph>
<glyph name="circumflex_tilde.uc" format="2">
  <advance width="580.4172"/>
  <anchor x="278.3088" y="694.0" name="_top"/>
  <outline>
    <contour>
      <point x="322.17560000000003" y="859.184" type="line"/>
      <point x="449.98679999999996" y="759.184" type="line"/>
      <point x="449.98679999999996" y="749.046" type="line"/>
      <point x="426.536" y="749.046" type="line"/>
      <point x="249.64159999999998" y="838.712" type="line"/>
      <point x="305.8932" y="838.712" type="line"/>
      <point x="136.5812" y="749.046" type="line"/>
      <point x="117.51400000000001" y="749.046" type="line"/>
      <point x="117.51400000000001" y="759.184" type="line"/>
      <point x="244.7852" y="859.184" type="line"/>
    </contour>
    <contour>
      <point x="361.7196" y="892.23" type="curve" smooth="yes"/>
      <point x="415.1624" y="892.23"/>
      <point x="442.2002574921256" y="925.106167837528"/>
      <point x="463.5656" y="983.862" type="curve"/>
      <point x="433.0356" y="993.322" type="line"/>
      <point x="416.183473174136" y="951.1467961402041"/>
      <point x="400.5248" y="926.334"/>
      <point x="367.6396" y="926.334" type="curve" smooth="yes"/>
      <point x="311.5776" y="926.334"/>
      <point x="284.2288" y="995.954"/>
      <point x="202.11880000000002" y="995.954" type="curve" smooth="yes"/>
      <point x="149.59320000000002" y="995.954"/>
      <point x="117.119583638032" y="963.9810231439001"/>
      <point x="103.23599999999999" y="902.3679999999999" type="curve"/>
      <point x="133.8488" y="892.0" type="line"/>
      <point x="145.44503000430961" y="937.247004851868"/>
      <point x="159.56560000000002" y="961.896"/>
      <point x="197.03320000000002" y="961.896" type="curve" smooth="yes"/>
      <point x="250.46319999999997" y="961.896"/>
      <point x="273.85519999999997" y="892.23"/>
    </contour>
  </outline>
</glyph>
<glyph name="dollar.altprop" format="2">
  <advance width="647.3448000000001"/>
  <outline>
    <contour>
      <point x="346.254" y="39.564" type="curve" smooth="yes"/>
      <point x="232.3420879581152" y="39.564"/>
      <point x="133.9556" y="70.518"/>
      <point x="88.35" y="123.702" type="curve"/>
      <point x="80.5128" y="112.47200000000001"/>
      <point x="93.3592" y="91.46"/>
      <point x="110.54599999999999" y="85.414" type="curve"/>
      <point x="110.54599999999999" y="180.886" type="line"/>
      <point x="59.9424" y="180.886" type="line"/>
      <point x="59.9424" y="94.04599999999999" type="line"/>
      <point x="108.0144" y="51.0"/>
      <point x="213.5837408" y="8.184000000000001"/>
      <point x="345.84000000000003" y="8.184000000000001" type="curve" smooth="yes"/>
      <point x="490.0864" y="8.184000000000001"/>
      <point x="604.8552" y="72.552"/>
      <point x="604.8552" y="195.598" type="curve" smooth="yes"/>
      <point x="604.8552" y="319.69"/>
      <point x="478.872" y="356.104"/>
      <point x="374.2284" y="380.242" type="curve" smooth="yes"/>
      <point x="257.70957433685396" y="406.13965365848134"/>
      <point x="140.7164" y="429.104"/>
      <point x="140.7164" y="532.954" type="curve" smooth="yes"/>
      <point x="140.7164" y="618.034"/>
      <point x="224.038" y="666.62"/>
      <point x="347.1344" y="666.62" type="curve" smooth="yes"/>
      <point x="453.93719999999996" y="666.62"/>
      <point x="521.048" y="637.16"/>
      <point x="548.2312000000001" y="605.976" type="curve"/>
      <point x="561.6508" y="621.206"/>
      <point x="543.4704" y="635.218"/>
      <point x="522.6212" y="638.172" type="curve"/>
      <point x="522.6212" y="551.482" type="line"/>
      <point x="575.8872" y="551.482" type="line"/>
      <point x="575.8872" y="635.77" type="line"/>
      <point x="547.8696" y="659.908"/>
      <point x="464.4892" y="698.0"/>
      <point x="346.6376" y="698.0" type="curve" smooth="yes"/>
      <point x="199.59359999999998" y="698.0"/>
      <point x="96.8304" y="632.0"/>
      <point x="96.8304" y="529.678" type="curve" smooth="yes"/>
      <point x="96.8304" y="407.402"/>
      <point x="218.2806341163879" y="373.3455106257667"/>
      <point x="319.3256" y="349.12600000000003" type="curve" smooth="yes"/>
      <point x="438.2932" y="322.17199999999997"/>
      <point x="561.006" y="304.12600000000003"/>
      <point x="561.006" y="188.23" type="curve" smooth="yes"/>
      <point x="561.006" y="85.196"/>
      <point x="468.2676" y="39.564"/>
    </contour>
    <contour>
      <point x="359.898" y="683.448" type="line"/>
      <point x="359.898" y="787.138" type="line"/>
      <point x="320.56759999999997" y="787.138" type="line"/>
      <point x="320.56759999999997" y="683.448" type="line"/>
    </contour>
    <contour>
      <point x="320.56759999999997" y="18.828" type="line"/>
      <point x="320.56759999999997" y="-120.0" type="line"/>
      <point x="359.898" y="-120.0" type="line"/>
      <point x="359.898" y="18.828" type="line"/>
    </contour>
  </outline>
</glyph>
<glyph name="f.alt" format="2">
  <advance width="426.4356"/>
  <outline>
    <contour>
      <point x="40.1888" y="508.0" type="line"/>
      <point x="40.1888" y="479.62" type="line"/>
      <point x="390.6" y="479.62" type="line"/>
      <point x="390.6" y="508.0" type="line"/>
    </contour>
    <contour>
      <point x="327.12120000000004" y="0.0" type="line"/>
      <point x="327.12120000000004" y="27.828" type="line"/>
      <point x="312.364" y="27.828" type="line" smooth="yes"/>
      <point x="249.624" y="27.828"/>
      <point x="202.184" y="30.828"/>
      <point x="202.184" y="37.827999999999996" type="curve" smooth="yes"/>
      <point x="202.184" y="600.528" type="line" smooth="yes"/>
      <point x="202.184" y="694.2520000000001"/>
      <point x="261.65999999999997" y="720.804"/>
      <point x="336.9088" y="720.804" type="curve"/>
      <point x="386.39480000000003" y="720.804"/>
      <point x="420.3324" y="707.666"/>
      <point x="451.8432" y="676.85" type="curve"/>
      <point x="457.85240000000005" y="702.482"/>
      <point x="449.0824" y="704.3679999999999"/>
      <point x="427.02160000000003" y="725.31" type="curve"/>
      <point x="427.02160000000003" y="637.85" type="line"/>
      <point x="479.1984" y="637.85" type="line"/>
      <point x="479.1984" y="710.644" type="line"/>
      <point x="451.2764" y="732.046"/>
      <point x="408.03520000000003" y="752.0"/>
      <point x="336.5776" y="752.0" type="curve"/>
      <point x="237.9672" y="752.0"/>
      <point x="161.2088" y="708.942"/>
      <point x="161.2088" y="600.528" type="curve" smooth="yes"/>
      <point x="161.2088" y="63.827999999999996" type="line" smooth="yes"/>
      <point x="161.2088" y="34.827999999999996"/>
      <point x="122.6888" y="27.828"/>
      <point x="58.948800000000006" y="27.828" type="curve" smooth="yes"/>
      <point x="46.1088" y="27.828" type="line"/>
      <point x="46.1088" y="0.0" type="line"/>
    </contour>
  </outline>
</glyph>
<glyph name="f_i" format="2">
  <advance width="720.1924"/>
  <outline>
    <contour>
      <point x="40.1888" y="508.0" type="line"/>
      <point x="40.1888" y="479.62" type="line"/>
      <point x="509.59799999999996" y="479.62" type="line"/>
      <point x="509.59799999999996" y="508.0" type="line"/>
    </contour>
    <contour>
      <point x="548.0176" y="655.2520000000001" type="curve" smooth="yes"/>
      <point x="573.3728000000001" y="655.2520000000001"/>
      <point x="592.1392" y="669.666"/>
      <point x="592.1392" y="696.218" type="curve" smooth="yes"/>
      <point x="592.1392" y="722.7239999999999"/>
      <point x="573.3728000000001" y="737.138"/>
      <point x="548.0176" y="737.138" type="curve" smooth="yes"/>
      <point x="522.7452000000001" y="737.138"/>
      <point x="503.9788" y="722.7239999999999"/>
      <point x="503.9788" y="696.218" type="curve" smooth="yes"/>
      <point x="503.9788" y="669.666"/>
      <point x="522.7452000000001" y="655.2520000000001"/>
    </contour>
    <contour>
      <point x="539.4896" y="37.827999999999996" type="line"/>
      <point x="539.4896" y="30.828"/>
      <point x="487.1296" y="27.828"/>
      <point x="455.0724" y="27.828" type="curve" smooth="yes"/>
      <point x="442.23240000000004" y="27.828" type="line"/>
      <point x="442.23240000000004" y="0.0" type="line"/>
      <point x="677.8048" y="0.0" type="line"/>
      <point x="677.8048" y="27.828" type="line"/>
      <point x="675.722" y="27.828" type="line" smooth="yes"/>
      <point x="619.902" y="27.828"/>
      <point x="580.4648" y="34.827999999999996"/>
      <point x="580.4648" y="63.827999999999996" type="curve" smooth="yes"/>
      <point x="580.4648" y="508.0" type="line"/>
      <point x="442.3152" y="508.0" type="line"/>
      <point x="442.3152" y="479.62" type="line"/>
      <point x="453.52959999999996" y="479.62" type="line" smooth="yes"/>
      <point x="512.7267999999999" y="479.62"/>
      <point x="539.4896" y="465.528"/>
      <point x="539.4896" y="436.528" type="curve"/>
    </contour>
    <contour>
      <point x="328.2804" y="0.0" type="line"/>
      <point x="328.2804" y="27.828" type="line"/>
      <point x="313.4404" y="27.828" type="line" smooth="yes"/>
      <point x="250.03799999999998" y="27.828"/>
      <point x="202.184" y="30.828"/>
      <point x="202.184" y="37.827999999999996" type="curve"/>
      <point x="202.184" y="591.034" type="line" smooth="yes"/>
      <point x="202.184" y="690.172"/>
      <point x="245.4124" y="723.666"/>
      <point x="317.2316" y="723.666" type="curve" smooth="yes"/>
      <point x="353.87120000000004" y="723.666"/>
      <point x="382.9284" y="714.7579999999999"/>
      <point x="406.3968" y="706.7579999999999" type="curve"/>
      <point x="406.3968" y="742.0" type="line"/>
      <point x="386.38840000000005" y="748.0"/>
      <point x="353.87120000000004" y="752.0"/>
      <point x="319.85720000000003" y="752.0" type="curve" smooth="yes"/>
      <point x="226.2624" y="752.0"/>
      <point x="161.2088" y="705.23"/>
      <point x="161.2088" y="591.034" type="curve" smooth="yes"/>
      <point x="161.2088" y="63.827999999999996" type="line" smooth="yes"/>
      <point x="161.2088" y="34.827999999999996"/>
      <point x="122.6888" y="27.828"/>
      <point x="58.948800000000006" y="27.828" type="curve" smooth="yes"/>
      <point x="46.1088" y="27.828" type="line"/>
      <point x="46.1088" y="0.0" type="line"/>
    </contour>
  </outline>
</glyph>
<glyph name="guarani.proportional" format="2">
  <advance width="811.2572"/>
  <outline>
    <contour>
      <point x="562.7096" y="353.23" type="line"/>
      <point x="562.7096" y="322.448" type="line"/>
      <point x="576.1292" y="322.448" type="line" smooth="yes"/>
      <point x="633.2609176470296" y="322.448"/>
      <point x="675.5088" y="315.448"/>
      <point x="675.5088" y="286.448" type="curve"/>
      <point x="709.9016" y="286.448" type="line"/>
      <point x="709.9016" y="315.448"/>
      <point x="746.9616000000001" y="322.448"/>
      <point x="796.8616000000001" y="322.448" type="curve" smooth="yes"/>
      <point x="801.7816" y="322.448" type="line"/>
      <point x="801.7816" y="353.23" type="line"/>
    </contour>
    <contour>
      <point x="397.79240000000004" y="790.0" type="line"/>
      <point x="397.79240000000004" y="682.31" type="line"/>
      <point x="397.79240000000004" y="677.804" type="line"/>
      <point x="397.79240000000004" y="26.104" type="line"/>
      <point x="397.79240000000004" y="20.828" type="line"/>
      <point x="397.79240000000004" y="-120.0" type="line"/>
      <point x="437.1228" y="-120.0" type="line"/>
      <point x="437.1228" y="22.506" type="line"/>
      <point x="437.1228" y="29.598" type="line"/>
      <point x="437.1228" y="682.356" type="line"/>
      <point x="437.1228" y="687.356" type="line"/>
      <point x="437.1228" y="790.0" type="line"/>
    </contour>
    <contour>
      <point x="430.3684" y="10.0" type="curve" smooth="yes"/>
      <point x="567.5596" y="10.0"/>
      <point x="671.1268" y="72.138"/>
      <point x="709.9016" y="122.46" type="curve"/>
      <point x="709.9016" y="332.448" type="line"/>
      <point x="675.5088" y="340.448" type="line"/>
      <point x="675.5088" y="132.23" type="line"/>
      <point x="647.1204" y="103.598"/>
      <point x="575.5432" y="41.288"/>
      <point x="431.28560000000004" y="41.288" type="curve" smooth="yes"/>
      <point x="221.98751058822882" y="41.288"/>
      <point x="97.682" y="159.828"/>
      <point x="97.682" y="355.0" type="curve" smooth="yes"/>
      <point x="97.682" y="547.08"/>
      <point x="229.57038749999998" y="668.712"/>
      <point x="434.994" y="668.712" type="curve" smooth="yes"/>
      <point x="560.9644000000001" y="668.712"/>
      <point x="636.468" y="625.942"/>
      <point x="677.9052" y="587.654" type="curve"/>
      <point x="695.116" y="563.506"/>
      <point x="703.8448" y="595.506"/>
      <point x="657.08" y="626.172" type="curve"/>
      <point x="657.08" y="521.264" type="line"/>
      <point x="710.1436000000001" y="521.264" type="line"/>
      <point x="710.1436000000001" y="615.126" type="line"/>
      <point x="659.664" y="655.046"/>
      <point x="570.3508" y="700.0"/>
      <point x="434.994" y="700.0" type="curve" smooth="yes"/>
      <point x="209.37" y="700.0"/>
      <point x="53.449200000000005" y="559.862"/>
      <point x="53.449200000000005" y="355.0" type="curve" smooth="yes"/>
      <point x="53.449200000000005" y="149.0"/>
      <point x="204.45" y="10.0"/>
    </contour>
  </outline>
</glyph>
<glyph name="hook.uc" format="2">
  <advance width="592.34"/>
  <anchor x="253.92319999999998" y="679.0" name="_top"/>
  <outline>
    <contour>
      <point x="144.7736" y="881.138" type="line"/>
      <point x="152.4018241081256" y="926.185123753228"/>
      <point x="199.00760000000002" y="964.184"/>
      <point x="279.2196" y="964.184" type="curve" smooth="yes"/>
      <point x="352.01480000000004" y="964.184"/>
      <point x="396.1236" y="936.954"/>
      <point x="396.1236" y="888.77" type="curve" smooth="yes"/>
      <point x="396.1236" y="836.279999999956"/>
      <point x="331.5032" y="806.54"/>
      <point x="258.88" y="802.448" type="curve"/>
      <point x="288.3576" y="828.6320000000001" type="line"/>
      <point x="288.3576" y="761.7239999999999" type="line"/>
      <point x="246.8616" y="761.7239999999999" type="line"/>
      <point x="246.8616" y="828.092" type="line"/>
      <point x="307.64480000000003" y="831.092"/>
      <point x="353.5752" y="848.138"/>
      <point x="353.5752" y="887.7239999999999" type="curve" smooth="yes"/>
      <point x="353.5752" y="918.402"/>
      <point x="324.276" y="936.264"/>
      <point x="279.30240000000003" y="936.264" type="curve" smooth="yes"/>
      <point x="220.578" y="936.264"/>
      <point x="196.694656565208" y="912.635668912988"/>
      <point x="187.8188" y="881.138" type="curve"/>
    </contour>
  </outline>
</glyph>
<glyph name="horncomb" format="2">
  <anchor x="80.1508" y="444.0" name="_top"/>
  <outline>
    <contour>
      <point x="-461.62" y="492.85" type="curve"/>
      <point x="-227.888" y="483.402"/>
      <point x="-178.84640000000002" y="556.2520000000001"/>
      <point x="-168.5556" y="684.77" type="curve"/>
      <point x="-210.5244" y="684.77" type="line"/>
      <point x="-222.44080000000002" y="554.494"/>
      <point x="-268.0768" y="517.54"/>
      <point x="-480.724" y="517.54" type="curve"/>
      <point x="-474.22440000000006" y="512.77"/>
      <point x="-468.1196" y="496.666"/>
    </contour>
  </outline>
</glyph>
<glyph name="hungarumlaut.uc" format="2">
  <advance width="580.5"/>
  <anchor x="262.4116" y="694.0" name="_top"/>
  <outline>
    <contour>
      <point x="229.3132" y="860.678" type="curve" smooth="yes"/>
      <point x="189.3028" y="775.2760000000001" type="line"/>
      <point x="189.3028" y="758.0" type="line"/>
      <point x="207.4896" y="758.0" type="line"/>
      <point x="280.054" y="839.206" type="line" smooth="yes"/>
      <point x="291.15520000000004" y="854.7579999999999"/>
      <point x="303.1672" y="870.804"/>
      <point x="303.1672" y="885.31" type="curve" smooth="yes"/>
      <point x="303.1672" y="901.7239999999999"/>
      <point x="291.3208" y="911.046"/>
      <point x="275.18" y="911.046" type="curve" smooth="yes"/>
      <point x="252.5396" y="911.046"/>
      <point x="244.23600000000002" y="896.092"/>
    </contour>
    <contour>
      <point x="350.74879999999996" y="860.678" type="curve" smooth="yes"/>
      <point x="311.2812" y="775.2760000000001" type="line"/>
      <point x="311.2812" y="758.0" type="line"/>
      <point x="329.468" y="758.0" type="line"/>
      <point x="402.0324" y="839.206" type="line" smooth="yes"/>
      <point x="413.0508" y="854.7579999999999"/>
      <point x="425.1456" y="870.804"/>
      <point x="425.1456" y="885.31" type="curve" smooth="yes"/>
      <point x="425.1456" y="901.7239999999999"/>
      <point x="413.2992" y="911.046"/>
      <point x="396.61560000000003" y="911.046" type="curve" smooth="yes"/>
      <point x="373.8924" y="911.046"/>
      <point x="366.2144" y="896.092"/>
    </contour>
  </outline>
</glyph>
<glyph name="lira.altprop" format="2">
  <advance width="686.0608"/>
  <outline>
    <contour>
      <point x="41.566" y="428.966" type="line"/>
      <point x="41.566" y="397.954" type="line"/>
      <point x="478.3752" y="397.954" type="line"/>
      <point x="478.3752" y="428.966" type="line"/>
    </contour>
    <contour>
      <point x="41.566" y="273.966" type="line"/>
      <point x="41.566" y="242.954" type="line"/>
      <point x="478.3752" y="242.954" type="line"/>
      <point x="478.3752" y="273.966" type="line"/>
    </contour>
    <contour>
      <point x="56.730799999999995" y="0.0" type="line"/>
      <point x="615.3244000000001" y="0.0" type="line"/>
      <point x="615.3244000000001" y="169.472" type="line"/>
      <point x="587.662" y="169.472" type="line"/>
      <point x="577.282" y="74.932" type="line" smooth="yes"/>
      <point x="573.9875999999999" y="38.932"/>
      <point x="531.8420000000001" y="31.932000000000002"/>
      <point x="432.04200000000003" y="31.932000000000002" type="curve"/>
      <point x="89.3308" y="31.932000000000002" type="line"/>
      <point x="102.4908" y="22.84" type="line"/>
      <point x="205.41320000000002" y="68.47200000000001"/>
      <point x="260.6076" y="138.254"/>
      <point x="260.6076" y="222.74800000000002" type="curve" smooth="yes"/>
      <point x="260.6076" y="332.472"/>
      <point x="160.19760000000002" y="411.046"/>
      <point x="160.19760000000002" y="527.816" type="curve" smooth="yes"/>
      <point x="160.19760000000002" y="630.85"/>
      <point x="247.0684" y="686.62"/>
      <point x="368.5328" y="686.62" type="curve" smooth="yes"/>
      <point x="458.03559999999993" y="686.62"/>
      <point x="517.0212" y="655.804"/>
      <point x="548.2072000000001" y="630.528" type="curve"/>
      <point x="548.3728" y="640.9879999999999"/>
      <point x="534.45" y="656.402"/>
      <point x="523.266" y="670.804" type="curve"/>
      <point x="523.266" y="574.3439999999999" type="line"/>
      <point x="574.6148000000001" y="574.3439999999999" type="line"/>
      <point x="574.6148000000001" y="660.862" type="line"/>
      <point x="543.1804" y="683.092"/>
      <point x="477.55359999999996" y="718.0"/>
      <point x="368.5328" y="718.0" type="curve" smooth="yes"/>
      <point x="221.5716" y="718.0"/>
      <point x="116.01080000000002" y="642.77"/>
      <point x="116.01080000000002" y="527.586" type="curve" smooth="yes"/>
      <point x="116.01080000000002" y="402.368"/>
      <point x="221.6848" y="313.702"/>
      <point x="221.6848" y="222.058" type="curve" smooth="yes"/>
      <point x="221.6848" y="125.116"/>
      <point x="158.346" y="78.56400000000001"/>
      <point x="56.730799999999995" y="36.748" type="curve"/>
    </contour>
  </outline>
</glyph>
<glyph name="nine.den" format="2">
  <advance width="376.44"/>
  <outline>
    <contour>
      <point x="69.5772" y="15.23" type="line"/>
      <point x="213.71551425385599" y="31.059142859088002"/>
      <point x="282.59040000000005" y="96.414"/>
      <point x="282.59040000000005" y="199.184" type="curve" smooth="yes"/>
      <point x="282.59040000000005" y="281.046"/>
      <point x="247.2518909090608" y="315.586"/>
      <point x="185.6772" y="315.586" type="curve" smooth="yes"/>
      <point x="131.61473548384959" y="315.586"/>
      <point x="93.684" y="282.724"/>
      <point x="93.684" y="231.816" type="curve" smooth="yes"/>
      <point x="93.684" y="189.77"/>
      <point x="115.4203428571192" y="155.09199999999998"/>
      <point x="177.6744" y="155.09199999999998" type="curve" smooth="yes"/>
      <point x="232.78957590363842" y="155.09199999999998"/>
      <point x="276.8482162202576" y="187.030918246708"/>
      <point x="301.3872" y="235.632" type="curve"/>
      <point x="311.0156" y="207.402" type="line"/>
      <point x="294.72117654688003" y="167.53181221288798"/>
      <point x="241.26815999994483" y="123.724"/>
      <point x="171.288" y="123.724" type="curve" smooth="yes"/>
      <point x="89.834" y="123.724"/>
      <point x="44.636" y="167.54"/>
      <point x="44.636" y="231.724" type="curve" smooth="yes"/>
      <point x="44.636" y="297.0"/>
      <point x="105.8792" y="346.0"/>
      <point x="185.76" y="346.0" type="curve" smooth="yes"/>
      <point x="274.60040000000004" y="346.0"/>
      <point x="331.26120000000003" y="295.23"/>
      <point x="331.26120000000003" y="199.138" type="curve" smooth="yes"/>
      <point x="331.26120000000003" y="84.414"/>
      <point x="241.6692" y="0.816"/>
      <point x="73.78880000000001" y="-15.138" type="curve"/>
    </contour>
  </outline>
</glyph>
<glyph name="one.old" format="2">
  <advance width="650.1600000000001"/>
  <outline>
    <contour>
      <point x="390.1272" y="63.92" type="curve" smooth="yes"/>
      <point x="390.1272" y="548.0" type="line"/>
      <point x="365.7528" y="548.0" type="line"/>
      <point x="326.4812" y="496.046"/>
      <point x="245.2296" y="474.0"/>
      <point x="138.8408" y="472.0" type="curve"/>
      <point x="138.8408" y="440.62" type="line"/>
      <point x="237.3924" y="438.62"/>
      <point x="334.6496" y="464.85"/>
      <point x="356.9524" y="510.85" type="curve"/>
      <point x="362.3296" y="523.85"/>
      <point x="365.9488" y="531.39"/>
      <point x="349.6488" y="509.39" type="curve"/>
      <point x="349.6488" y="63.92" type="line" smooth="yes"/>
      <point x="349.6488" y="34.92"/>
      <point x="303.2088" y="27.92"/>
      <point x="228.0888" y="27.92" type="curve" smooth="yes"/>
      <point x="149.47560000000001" y="27.92" type="line"/>
      <point x="149.47560000000001" y="0.0" type="line"/>
      <point x="582.9664" y="0.0" type="line"/>
      <point x="582.9664" y="27.92" type="line"/>
      <point x="524.0699999999999" y="27.92" type="line" smooth="yes"/>
      <point x="441.57" y="27.92"/>
      <point x="390.1272" y="34.92"/>
    </contour>
  </outline>
</glyph>
<glyph name="parenleft.uc" format="2">
  <advance width="331.29600000000005"/>
  <outline>
    <contour>
      <point x="111.62880000000001" y="355.46" type="curve" smooth="yes"/>
      <point x="111.62880000000001" y="169.448"/>
      <point x="217.6864" y="31.46"/>
      <point x="302.156" y="-32.23" type="curve"/>
      <point x="302.156" y="-35.23" type="line"/>
      <point x="266.4448" y="-35.23" type="line"/>
      <point x="174.5824" y="27.322"/>
      <point x="70.7364" y="173.264"/>
      <point x="70.7364" y="355.46" type="curve" smooth="yes"/>
      <point x="70.7364" y="537.506"/>
      <point x="173.4996" y="682.54"/>
      <point x="266.4448" y="745.23" type="curve"/>
      <point x="302.156" y="745.23" type="line"/>
      <point x="302.156" y="742.23" type="line"/>
      <point x="216.438" y="678.402"/>
      <point x="111.62880000000001" y="540.414"/>
    </contour>
  </outline>
</glyph>
<glyph name="whitecircle" format="2">
  <advance width="687.6800000000001"/>
  <outline>
    <contour>
      <point x="343.84000000000003" y="80.0" type="curve" smooth="yes"/>
      <point x="490.08000000000004" y="80.0"/>
      <point x="606.1800000000001" y="177.0"/>
      <point x="606.1800000000001" y="304.0" type="curve" smooth="yes"/>
      <point x="606.1800000000001" y="431.0"/>
      <point x="490.08000000000004" y="528.0"/>
      <point x="343.84000000000003" y="528.0" type="curve" smooth="yes"/>
      <point x="197.6" y="528.0"/>
      <point x="81.03999999999999" y="431.0"/>
      <point x="81.03999999999999" y="304.0" type="curve" smooth="yes"/>
      <point x="81.03999999999999" y="177.0"/>
      <point x="197.6" y="80.0"/>
    </contour>
    <contour>
      <point x="343.84000000000003" y="137.0" type="curve" smooth="yes"/>
      <point x="232.2" y="137.0"/>
      <point x="151.16" y="205.0"/>
      <point x="151.16" y="304.0" type="curve" smooth="yes"/>
      <point x="151.16" y="403.0"/>
      <point x="232.2" y="471.0"/>
      <point x="343.84000000000003" y="471.0" type="curve" smooth="yes"/>
      <point x="455.02" y="471.0"/>
      <point x="536.52" y="402.6706097561065"/>
      <point x="536.52" y="304.0" type="curve" smooth="yes"/>
      <point x="536.52" y="205.3293902438935"/>
      <point x="455.02" y="137.0"/>
    </contour>
  </outline>
</glyph>
